0
SECTION
2
HEADER
0
ENDSEC
0
SECTION
2
ENTITIES
0
POINT
8
PERFIL_ELEVACION
10
1409039.64
20
0.0
30
3.43
0
POINT
8
PERFIL_ELEVACION
10
1409039.64
20
0.0
30
3.44
0
POINT
8
PERFIL_ELEVACION
10
1409039.8
20
0.0
30
3.42
0
POINT
8
PERFIL_ELEVACION
10
1409039.8
20
0.0
30
3.45
0
POINT
8
PERFIL_ELEVACION
10
1409039.95
20
0.0
30
3.43
0
POINT
8
PERFIL_ELEVACION
10
1409039.95
20
0.0
30
3.44
0
POINT
8
PERFIL_ELEVACION
10
1409040.1
20
0.0
30
3.41
0
POINT
8
PERFIL_ELEVACION
10
1409040.1
20
0.0
30
3.44
0
POINT
8
PERFIL_ELEVACION
10
1409040.25
20
0.0
30
3.4
0
POINT
8
PERFIL_ELEVACION
10
1409040.25
20
0.0
30
3.45
0
POINT
8
PERFIL_ELEVACION
10
1409040.41
20
0.0
30
3.42
0
POINT
8
PERFIL_ELEVACION
10
1409040.56
20
0.0
30
3.41
0
POINT
8
PERFIL_ELEVACION
10
1409040.56
20
0.0
30
3.44
0
POINT
8
PERFIL_ELEVACION
10
1409040.71
20
0.0
30
3.4
0
POINT
8
PERFIL_ELEVACION
10
1409040.71
20
0.0
30
3.56
0
POINT
8
PERFIL_ELEVACION
10
1409040.87
20
0.0
30
3.43
0
POINT
8
PERFIL_ELEVACION
10
1409040.87
20
0.0
30
3.44
0
POINT
8
PERFIL_ELEVACION
10
1409041.02
20
0.0
30
3.42
0
POINT
8
PERFIL_ELEVACION
10
1409041.02
20
0.0
30
3.44
0
POINT
8
PERFIL_ELEVACION
10
1409041.17
20
0.0
30
3.42
0
POINT
8
PERFIL_ELEVACION
10
1409041.17
20
0.0
30
3.57
0
POINT
8
PERFIL_ELEVACION
10
1409041.33
20
0.0
30
3.4
0
POINT
8
PERFIL_ELEVACION
10
1409041.33
20
0.0
30
3.43
0
POINT
8
PERFIL_ELEVACION
10
1409041.48
20
0.0
30
3.42
0
POINT
8
PERFIL_ELEVACION
10
1409041.48
20
0.0
30
3.43
0
POINT
8
PERFIL_ELEVACION
10
1409041.63
20
0.0
30
3.4
0
POINT
8
PERFIL_ELEVACION
10
1409041.63
20
0.0
30
3.42
0
POINT
8
PERFIL_ELEVACION
10
1409041.79
20
0.0
30
3.41
0
POINT
8
PERFIL_ELEVACION
10
1409041.79
20
0.0
30
3.43
0
POINT
8
PERFIL_ELEVACION
10
1409041.94
20
0.0
30
3.4
0
POINT
8
PERFIL_ELEVACION
10
1409041.94
20
0.0
30
3.42
0
POINT
8
PERFIL_ELEVACION
10
1409042.25
20
0.0
30
3.41
0
POINT
8
PERFIL_ELEVACION
10
1409042.25
20
0.0
30
3.42
0
POINT
8
PERFIL_ELEVACION
10
1409042.4
20
0.0
30
3.4
0
POINT
8
PERFIL_ELEVACION
10
1409042.4
20
0.0
30
3.41
0
POINT
8
PERFIL_ELEVACION
10
1409042.55
20
0.0
30
3.41
0
POINT
8
PERFIL_ELEVACION
10
1409042.71
20
0.0
30
3.42
0
POINT
8
PERFIL_ELEVACION
10
1409042.71
20
0.0
30
3.43
0
POINT
8
PERFIL_ELEVACION
10
1409042.86
20
0.0
30
3.39
0
POINT
8
PERFIL_ELEVACION
10
1409042.86
20
0.0
30
3.42
0
POINT
8
PERFIL_ELEVACION
10
1409043.01
20
0.0
30
3.39
0
POINT
8
PERFIL_ELEVACION
10
1409043.01
20
0.0
30
3.41
0
POINT
8
PERFIL_ELEVACION
10
1409043.17
20
0.0
30
3.38
0
POINT
8
PERFIL_ELEVACION
10
1409043.17
20
0.0
30
3.41
0
POINT
8
PERFIL_ELEVACION
10
1409043.32
20
0.0
30
3.39
0
POINT
8
PERFIL_ELEVACION
10
1409043.32
20
0.0
30
3.42
0
POINT
8
PERFIL_ELEVACION
10
1409043.47
20
0.0
30
3.39
0
POINT
8
PERFIL_ELEVACION
10
1409043.47
20
0.0
30
3.4
0
POINT
8
PERFIL_ELEVACION
10
1409043.63
20
0.0
30
3.4
0
POINT
8
PERFIL_ELEVACION
10
1409043.63
20
0.0
30
3.41
0
POINT
8
PERFIL_ELEVACION
10
1409043.78
20
0.0
30
3.38
0
POINT
8
PERFIL_ELEVACION
10
1409043.78
20
0.0
30
3.42
0
POINT
8
PERFIL_ELEVACION
10
1409043.93
20
0.0
30
3.39
0
POINT
8
PERFIL_ELEVACION
10
1409043.93
20
0.0
30
3.44
0
POINT
8
PERFIL_ELEVACION
10
1409044.09
20
0.0
30
3.4
0
POINT
8
PERFIL_ELEVACION
10
1409044.09
20
0.0
30
3.41
0
POINT
8
PERFIL_ELEVACION
10
1409044.24
20
0.0
30
3.39
0
POINT
8
PERFIL_ELEVACION
10
1409044.24
20
0.0
30
3.42
0
POINT
8
PERFIL_ELEVACION
10
1409044.39
20
0.0
30
3.4
0
POINT
8
PERFIL_ELEVACION
10
1409044.39
20
0.0
30
3.41
0
POINT
8
PERFIL_ELEVACION
10
1409044.55
20
0.0
30
3.38
0
POINT
8
PERFIL_ELEVACION
10
1409044.55
20
0.0
30
3.39
0
POINT
8
PERFIL_ELEVACION
10
1409044.7
20
0.0
30
3.4
0
POINT
8
PERFIL_ELEVACION
10
1409044.7
20
0.0
30
3.41
0
POINT
8
PERFIL_ELEVACION
10
1409044.85
20
0.0
30
3.39
0
POINT
8
PERFIL_ELEVACION
10
1409044.85
20
0.0
30
3.46
0
POINT
8
PERFIL_ELEVACION
10
1409045
20
0.0
30
3.39
0
POINT
8
PERFIL_ELEVACION
10
1409045
20
0.0
30
3.41
0
POINT
8
PERFIL_ELEVACION
10
1409045.16
20
0.0
30
3.38
0
POINT
8
PERFIL_ELEVACION
10
1409045.16
20
0.0
30
3.41
0
POINT
8
PERFIL_ELEVACION
10
1409045.31
20
0.0
30
3.39
0
POINT
8
PERFIL_ELEVACION
10
1409045.31
20
0.0
30
3.4
0
POINT
8
PERFIL_ELEVACION
10
1409045.46
20
0.0
30
3.38
0
POINT
8
PERFIL_ELEVACION
10
1409045.46
20
0.0
30
3.41
0
POINT
8
PERFIL_ELEVACION
10
1409045.62
20
0.0
30
3.39
0
POINT
8
PERFIL_ELEVACION
10
1409045.62
20
0.0
30
3.44
0
POINT
8
PERFIL_ELEVACION
10
1409045.77
20
0.0
30
3.39
0
POINT
8
PERFIL_ELEVACION
10
1409045.77
20
0.0
30
3.4
0
POINT
8
PERFIL_ELEVACION
10
1409045.92
20
0.0
30
3.38
0
POINT
8
PERFIL_ELEVACION
10
1409045.92
20
0.0
30
3.4
0
POINT
8
PERFIL_ELEVACION
10
1409046.08
20
0.0
30
3.38
0
POINT
8
PERFIL_ELEVACION
10
1409046.08
20
0.0
30
3.41
0
POINT
8
PERFIL_ELEVACION
10
1409046.23
20
0.0
30
3.4
0
POINT
8
PERFIL_ELEVACION
10
1409046.38
20
0.0
30
3.38
0
POINT
8
PERFIL_ELEVACION
10
1409046.38
20
0.0
30
3.4
0
POINT
8
PERFIL_ELEVACION
10
1409046.54
20
0.0
30
3.38
0
POINT
8
PERFIL_ELEVACION
10
1409046.54
20
0.0
30
3.41
0
POINT
8
PERFIL_ELEVACION
10
1409046.69
20
0.0
30
3.37
0
POINT
8
PERFIL_ELEVACION
10
1409046.69
20
0.0
30
3.41
0
POINT
8
PERFIL_ELEVACION
10
1409046.84
20
0.0
30
3.38
0
POINT
8
PERFIL_ELEVACION
10
1409046.84
20
0.0
30
3.39
0
POINT
8
PERFIL_ELEVACION
10
1409047
20
0.0
30
3.39
0
POINT
8
PERFIL_ELEVACION
10
1409047.15
20
0.0
30
3.39
0
POINT
8
PERFIL_ELEVACION
10
1409047.15
20
0.0
30
3.39
0
POINT
8
PERFIL_ELEVACION
10
1409047.3
20
0.0
30
3.37
0
POINT
8
PERFIL_ELEVACION
10
1409047.3
20
0.0
30
3.39
0
POINT
8
PERFIL_ELEVACION
10
1409047.46
20
0.0
30
3.38
0
POINT
8
PERFIL_ELEVACION
10
1409047.46
20
0.0
30
3.39
0
POINT
8
PERFIL_ELEVACION
10
1409047.61
20
0.0
30
3.36
0
POINT
8
PERFIL_ELEVACION
10
1409047.61
20
0.0
30
3.38
0
POINT
8
PERFIL_ELEVACION
10
1409047.76
20
0.0
30
3.36
0
POINT
8
PERFIL_ELEVACION
10
1409047.76
20
0.0
30
3.39
0
POINT
8
PERFIL_ELEVACION
10
1409047.92
20
0.0
30
3.38
0
POINT
8
PERFIL_ELEVACION
10
1409047.92
20
0.0
30
3.38
0
POINT
8
PERFIL_ELEVACION
10
1409048.07
20
0.0
30
3.38
0
POINT
8
PERFIL_ELEVACION
10
1409048.07
20
0.0
30
3.38
0
POINT
8
PERFIL_ELEVACION
10
1409048.22
20
0.0
30
3.37
0
POINT
8
PERFIL_ELEVACION
10
1409048.22
20
0.0
30
3.38
0
POINT
8
PERFIL_ELEVACION
10
1409048.38
20
0.0
30
3.36
0
POINT
8
PERFIL_ELEVACION
10
1409048.38
20
0.0
30
3.38
0
POINT
8
PERFIL_ELEVACION
10
1409048.53
20
0.0
30
3.37
0
POINT
8
PERFIL_ELEVACION
10
1409048.53
20
0.0
30
3.38
0
POINT
8
PERFIL_ELEVACION
10
1409048.68
20
0.0
30
3.36
0
POINT
8
PERFIL_ELEVACION
10
1409048.68
20
0.0
30
3.38
0
POINT
8
PERFIL_ELEVACION
10
1409048.84
20
0.0
30
3.37
0
POINT
8
PERFIL_ELEVACION
10
1409048.84
20
0.0
30
3.38
0
POINT
8
PERFIL_ELEVACION
10
1409048.99
20
0.0
30
3.37
0
POINT
8
PERFIL_ELEVACION
10
1409048.99
20
0.0
30
3.39
0
POINT
8
PERFIL_ELEVACION
10
1409049.14
20
0.0
30
3.37
0
POINT
8
PERFIL_ELEVACION
10
1409049.3
20
0.0
30
3.36
0
POINT
8
PERFIL_ELEVACION
10
1409049.3
20
0.0
30
3.38
0
POINT
8
PERFIL_ELEVACION
10
1409049.45
20
0.0
30
3.38
0
POINT
8
PERFIL_ELEVACION
10
1409049.6
20
0.0
30
3.37
0
POINT
8
PERFIL_ELEVACION
10
1409049.6
20
0.0
30
3.39
0
POINT
8
PERFIL_ELEVACION
10
1409049.76
20
0.0
30
3.37
0
POINT
8
PERFIL_ELEVACION
10
1409049.76
20
0.0
30
3.38
0
POINT
8
PERFIL_ELEVACION
10
1409049.91
20
0.0
30
3.35
0
POINT
8
PERFIL_ELEVACION
10
1409049.91
20
0.0
30
3.38
0
POINT
8
PERFIL_ELEVACION
10
1409050.06
20
0.0
30
3.34
0
POINT
8
PERFIL_ELEVACION
10
1409050.06
20
0.0
30
3.39
0
POINT
8
PERFIL_ELEVACION
10
1409050.21
20
0.0
30
3.36
0
POINT
8
PERFIL_ELEVACION
10
1409050.21
20
0.0
30
3.38
0
POINT
8
PERFIL_ELEVACION
10
1409050.37
20
0.0
30
3.38
0
POINT
8
PERFIL_ELEVACION
10
1409050.37
20
0.0
30
3.38
0
POINT
8
PERFIL_ELEVACION
10
1409050.52
20
0.0
30
3.36
0
POINT
8
PERFIL_ELEVACION
10
1409050.52
20
0.0
30
3.38
0
POINT
8
PERFIL_ELEVACION
10
1409050.67
20
0.0
30
3.36
0
POINT
8
PERFIL_ELEVACION
10
1409050.67
20
0.0
30
3.38
0
POINT
8
PERFIL_ELEVACION
10
1409050.83
20
0.0
30
3.35
0
POINT
8
PERFIL_ELEVACION
10
1409050.83
20
0.0
30
3.38
0
POINT
8
PERFIL_ELEVACION
10
1409050.98
20
0.0
30
3.36
0
POINT
8
PERFIL_ELEVACION
10
1409050.98
20
0.0
30
3.38
0
POINT
8
PERFIL_ELEVACION
10
1409051.13
20
0.0
30
3.36
0
POINT
8
PERFIL_ELEVACION
10
1409051.13
20
0.0
30
3.38
0
POINT
8
PERFIL_ELEVACION
10
1409051.29
20
0.0
30
3.36
0
POINT
8
PERFIL_ELEVACION
10
1409051.29
20
0.0
30
3.38
0
POINT
8
PERFIL_ELEVACION
10
1409051.44
20
0.0
30
3.38
0
POINT
8
PERFIL_ELEVACION
10
1409051.44
20
0.0
30
3.38
0
POINT
8
PERFIL_ELEVACION
10
1409051.59
20
0.0
30
3.34
0
POINT
8
PERFIL_ELEVACION
10
1409051.59
20
0.0
30
3.34
0
POINT
8
PERFIL_ELEVACION
10
1409051.75
20
0.0
30
3.36
0
POINT
8
PERFIL_ELEVACION
10
1409051.75
20
0.0
30
3.38
0
POINT
8
PERFIL_ELEVACION
10
1409051.9
20
0.0
30
3.34
0
POINT
8
PERFIL_ELEVACION
10
1409051.9
20
0.0
30
3.37
0
POINT
8
PERFIL_ELEVACION
10
1409052.05
20
0.0
30
3.35
0
POINT
8
PERFIL_ELEVACION
10
1409052.05
20
0.0
30
3.37
0
POINT
8
PERFIL_ELEVACION
10
1409052.21
20
0.0
30
3.34
0
POINT
8
PERFIL_ELEVACION
10
1409052.21
20
0.0
30
3.37
0
POINT
8
PERFIL_ELEVACION
10
1409052.36
20
0.0
30
3.34
0
POINT
8
PERFIL_ELEVACION
10
1409052.36
20
0.0
30
3.37
0
POINT
8
PERFIL_ELEVACION
10
1409052.51
20
0.0
30
3.34
0
POINT
8
PERFIL_ELEVACION
10
1409052.51
20
0.0
30
3.38
0
POINT
8
PERFIL_ELEVACION
10
1409052.67
20
0.0
30
3.36
0
POINT
8
PERFIL_ELEVACION
10
1409052.82
20
0.0
30
3.35
0
POINT
8
PERFIL_ELEVACION
10
1409052.82
20
0.0
30
3.36
0
POINT
8
PERFIL_ELEVACION
10
1409052.97
20
0.0
30
3.36
0
POINT
8
PERFIL_ELEVACION
10
1409052.97
20
0.0
30
3.36
0
POINT
8
PERFIL_ELEVACION
10
1409053.13
20
0.0
30
3.32
0
POINT
8
PERFIL_ELEVACION
10
1409053.13
20
0.0
30
3.36
0
POINT
8
PERFIL_ELEVACION
10
1409053.28
20
0.0
30
3.33
0
POINT
8
PERFIL_ELEVACION
10
1409053.28
20
0.0
30
3.36
0
POINT
8
PERFIL_ELEVACION
10
1409053.43
20
0.0
30
3.32
0
POINT
8
PERFIL_ELEVACION
10
1409053.43
20
0.0
30
3.35
0
POINT
8
PERFIL_ELEVACION
10
1409053.59
20
0.0
30
3.31
0
POINT
8
PERFIL_ELEVACION
10
1409053.59
20
0.0
30
3.35
0
POINT
8
PERFIL_ELEVACION
10
1409053.74
20
0.0
30
3.35
0
POINT
8
PERFIL_ELEVACION
10
1409053.74
20
0.0
30
3.35
0
POINT
8
PERFIL_ELEVACION
10
1409053.89
20
0.0
30
3.32
0
POINT
8
PERFIL_ELEVACION
10
1409053.89
20
0.0
30
3.37
0
POINT
8
PERFIL_ELEVACION
10
1409054.05
20
0.0
30
3.33
0
POINT
8
PERFIL_ELEVACION
10
1409054.05
20
0.0
30
3.34
0
POINT
8
PERFIL_ELEVACION
10
1409054.2
20
0.0
30
3.32
0
POINT
8
PERFIL_ELEVACION
10
1409054.2
20
0.0
30
10.06
0
POINT
8
PERFIL_ELEVACION
10
1409054.35
20
0.0
30
3.31
0
POINT
8
PERFIL_ELEVACION
10
1409054.35
20
0.0
30
10.04
0
POINT
8
PERFIL_ELEVACION
10
1409054.51
20
0.0
30
3.33
0
POINT
8
PERFIL_ELEVACION
10
1409054.51
20
0.0
30
3.34
0
POINT
8
PERFIL_ELEVACION
10
1409054.66
20
0.0
30
3.32
0
POINT
8
PERFIL_ELEVACION
10
1409054.66
20
0.0
30
3.34
0
POINT
8
PERFIL_ELEVACION
10
1409054.81
20
0.0
30
3.31
0
POINT
8
PERFIL_ELEVACION
10
1409054.81
20
0.0
30
3.34
0
POINT
8
PERFIL_ELEVACION
10
1409054.97
20
0.0
30
3.31
0
POINT
8
PERFIL_ELEVACION
10
1409054.97
20
0.0
30
3.33
0
POINT
8
PERFIL_ELEVACION
10
1409055.12
20
0.0
30
3.32
0
POINT
8
PERFIL_ELEVACION
10
1409055.12
20
0.0
30
3.34
0
POINT
8
PERFIL_ELEVACION
10
1409055.27
20
0.0
30
3.3
0
POINT
8
PERFIL_ELEVACION
10
1409055.27
20
0.0
30
3.33
0
POINT
8
PERFIL_ELEVACION
10
1409055.42
20
0.0
30
3.3
0
POINT
8
PERFIL_ELEVACION
10
1409055.42
20
0.0
30
3.32
0
POINT
8
PERFIL_ELEVACION
10
1409055.58
20
0.0
30
3.31
0
POINT
8
PERFIL_ELEVACION
10
1409055.58
20
0.0
30
3.32
0
POINT
8
PERFIL_ELEVACION
10
1409055.73
20
0.0
30
3.32
0
POINT
8
PERFIL_ELEVACION
10
1409055.73
20
0.0
30
3.34
0
POINT
8
PERFIL_ELEVACION
10
1409055.88
20
0.0
30
3.3
0
POINT
8
PERFIL_ELEVACION
10
1409055.88
20
0.0
30
3.31
0
POINT
8
PERFIL_ELEVACION
10
1409056.04
20
0.0
30
3.29
0
POINT
8
PERFIL_ELEVACION
10
1409056.04
20
0.0
30
3.31
0
POINT
8
PERFIL_ELEVACION
10
1409056.19
20
0.0
30
3.3
0
POINT
8
PERFIL_ELEVACION
10
1409056.19
20
0.0
30
3.33
0
POINT
8
PERFIL_ELEVACION
10
1409056.34
20
0.0
30
3.3
0
POINT
8
PERFIL_ELEVACION
10
1409056.34
20
0.0
30
3.31
0
POINT
8
PERFIL_ELEVACION
10
1409056.5
20
0.0
30
3.3
0
POINT
8
PERFIL_ELEVACION
10
1409056.5
20
0.0
30
3.31
0
POINT
8
PERFIL_ELEVACION
10
1409056.65
20
0.0
30
3.33
0
POINT
8
PERFIL_ELEVACION
10
1409056.8
20
0.0
30
3.29
0
POINT
8
PERFIL_ELEVACION
10
1409056.8
20
0.0
30
3.31
0
POINT
8
PERFIL_ELEVACION
10
1409056.96
20
0.0
30
3.31
0
POINT
8
PERFIL_ELEVACION
10
1409056.96
20
0.0
30
3.32
0
POINT
8
PERFIL_ELEVACION
10
1409057.11
20
0.0
30
3.29
0
POINT
8
PERFIL_ELEVACION
10
1409057.11
20
0.0
30
3.32
0
POINT
8
PERFIL_ELEVACION
10
1409057.42
20
0.0
30
3.29
0
POINT
8
PERFIL_ELEVACION
10
1409057.42
20
0.0
30
3.32
0
POINT
8
PERFIL_ELEVACION
10
1409057.57
20
0.0
30
3.29
0
POINT
8
PERFIL_ELEVACION
10
1409057.57
20
0.0
30
3.32
0
POINT
8
PERFIL_ELEVACION
10
1409057.72
20
0.0
30
3.28
0
POINT
8
PERFIL_ELEVACION
10
1409057.72
20
0.0
30
3.33
0
POINT
8
PERFIL_ELEVACION
10
1409057.88
20
0.0
30
3.31
0
POINT
8
PERFIL_ELEVACION
10
1409058.03
20
0.0
30
3.3
0
POINT
8
PERFIL_ELEVACION
10
1409058.03
20
0.0
30
3.31
0
POINT
8
PERFIL_ELEVACION
10
1409058.18
20
0.0
30
3.29
0
POINT
8
PERFIL_ELEVACION
10
1409058.18
20
0.0
30
3.33
0
POINT
8
PERFIL_ELEVACION
10
1409058.34
20
0.0
30
3.29
0
POINT
8
PERFIL_ELEVACION
10
1409058.34
20
0.0
30
3.31
0
POINT
8
PERFIL_ELEVACION
10
1409058.49
20
0.0
30
3.29
0
POINT
8
PERFIL_ELEVACION
10
1409058.49
20
0.0
30
5.31
0
POINT
8
PERFIL_ELEVACION
10
1409058.64
20
0.0
30
3.29
0
POINT
8
PERFIL_ELEVACION
10
1409058.64
20
0.0
30
6.33
0
POINT
8
PERFIL_ELEVACION
10
1409058.8
20
0.0
30
3.3
0
POINT
8
PERFIL_ELEVACION
10
1409058.8
20
0.0
30
6.34
0
POINT
8
PERFIL_ELEVACION
10
1409058.95
20
0.0
30
3.29
0
POINT
8
PERFIL_ELEVACION
10
1409058.95
20
0.0
30
6.32
0
POINT
8
PERFIL_ELEVACION
10
1409059.1
20
0.0
30
3.31
0
POINT
8
PERFIL_ELEVACION
10
1409059.1
20
0.0
30
3.74
0
POINT
8
PERFIL_ELEVACION
10
1409059.26
20
0.0
30
3.3
0
POINT
8
PERFIL_ELEVACION
10
1409059.26
20
0.0
30
6.28
0
POINT
8
PERFIL_ELEVACION
10
1409059.41
20
0.0
30
3.31
0
POINT
8
PERFIL_ELEVACION
10
1409059.41
20
0.0
30
3.45
0
POINT
8
PERFIL_ELEVACION
10
1409059.56
20
0.0
30
3.29
0
POINT
8
PERFIL_ELEVACION
10
1409059.56
20
0.0
30
6.22
0
POINT
8
PERFIL_ELEVACION
10
1409059.72
20
0.0
30
3.3
0
POINT
8
PERFIL_ELEVACION
10
1409059.72
20
0.0
30
6.22
0
POINT
8
PERFIL_ELEVACION
10
1409059.87
20
0.0
30
3.29
0
POINT
8
PERFIL_ELEVACION
10
1409059.87
20
0.0
30
4.06
0
POINT
8
PERFIL_ELEVACION
10
1409060.02
20
0.0
30
3.28
0
POINT
8
PERFIL_ELEVACION
10
1409060.02
20
0.0
30
6.14
0
POINT
8
PERFIL_ELEVACION
10
1409060.18
20
0.0
30
3.29
0
POINT
8
PERFIL_ELEVACION
10
1409060.18
20
0.0
30
6.13
0
POINT
8
PERFIL_ELEVACION
10
1409060.33
20
0.0
30
3.29
0
POINT
8
PERFIL_ELEVACION
10
1409060.33
20
0.0
30
4.36
0
POINT
8
PERFIL_ELEVACION
10
1409060.48
20
0.0
30
3.28
0
POINT
8
PERFIL_ELEVACION
10
1409060.48
20
0.0
30
6.06
0
POINT
8
PERFIL_ELEVACION
10
1409060.63
20
0.0
30
3.26
0
POINT
8
PERFIL_ELEVACION
10
1409060.63
20
0.0
30
6.01
0
POINT
8
PERFIL_ELEVACION
10
1409060.79
20
0.0
30
3.27
0
POINT
8
PERFIL_ELEVACION
10
1409060.79
20
0.0
30
5.99
0
POINT
8
PERFIL_ELEVACION
10
1409060.94
20
0.0
30
3.27
0
POINT
8
PERFIL_ELEVACION
10
1409060.94
20
0.0
30
5.27
0
POINT
8
PERFIL_ELEVACION
10
1409061.09
20
0.0
30
3.27
0
POINT
8
PERFIL_ELEVACION
10
1409061.09
20
0.0
30
5.98
0
POINT
8
PERFIL_ELEVACION
10
1409061.25
20
0.0
30
3.3
0
POINT
8
PERFIL_ELEVACION
10
1409061.4
20
0.0
30
3.26
0
POINT
8
PERFIL_ELEVACION
10
1409061.4
20
0.0
30
5.91
0
POINT
8
PERFIL_ELEVACION
10
1409061.55
20
0.0
30
3.26
0
POINT
8
PERFIL_ELEVACION
10
1409061.55
20
0.0
30
3.28
0
POINT
8
PERFIL_ELEVACION
10
1409061.71
20
0.0
30
3.27
0
POINT
8
PERFIL_ELEVACION
10
1409061.71
20
0.0
30
5.86
0
POINT
8
PERFIL_ELEVACION
10
1409061.86
20
0.0
30
3.26
0
POINT
8
PERFIL_ELEVACION
10
1409061.86
20
0.0
30
5.84
0
POINT
8
PERFIL_ELEVACION
10
1409062.01
20
0.0
30
3.26
0
POINT
8
PERFIL_ELEVACION
10
1409062.01
20
0.0
30
5.8
0
POINT
8
PERFIL_ELEVACION
10
1409062.17
20
0.0
30
3.25
0
POINT
8
PERFIL_ELEVACION
10
1409062.17
20
0.0
30
5.81
0
POINT
8
PERFIL_ELEVACION
10
1409062.47
20
0.0
30
3.25
0
POINT
8
PERFIL_ELEVACION
10
1409062.47
20
0.0
30
3.76
0
POINT
8
PERFIL_ELEVACION
10
1409062.63
20
0.0
30
3.26
0
POINT
8
PERFIL_ELEVACION
10
1409062.63
20
0.0
30
3.39
0
POINT
8
PERFIL_ELEVACION
10
1409062.78
20
0.0
30
3.27
0
POINT
8
PERFIL_ELEVACION
10
1409062.78
20
0.0
30
3.28
0
POINT
8
PERFIL_ELEVACION
10
1409062.93
20
0.0
30
3.24
0
POINT
8
PERFIL_ELEVACION
10
1409062.93
20
0.0
30
3.39
0
POINT
8
PERFIL_ELEVACION
10
1409063.09
20
0.0
30
3.24
0
POINT
8
PERFIL_ELEVACION
10
1409063.09
20
0.0
30
3.37
0
POINT
8
PERFIL_ELEVACION
10
1409063.24
20
0.0
30
3.24
0
POINT
8
PERFIL_ELEVACION
10
1409063.24
20
0.0
30
5.26
0
POINT
8
PERFIL_ELEVACION
10
1409063.39
20
0.0
30
3.23
0
POINT
8
PERFIL_ELEVACION
10
1409063.39
20
0.0
30
5.27
0
POINT
8
PERFIL_ELEVACION
10
1409063.55
20
0.0
30
3.23
0
POINT
8
PERFIL_ELEVACION
10
1409063.55
20
0.0
30
3.74
0
POINT
8
PERFIL_ELEVACION
10
1409063.7
20
0.0
30
3.22
0
POINT
8
PERFIL_ELEVACION
10
1409063.7
20
0.0
30
5.23
0
POINT
8
PERFIL_ELEVACION
10
1409063.85
20
0.0
30
3.24
0
POINT
8
PERFIL_ELEVACION
10
1409064.01
20
0.0
30
3.24
0
POINT
8
PERFIL_ELEVACION
10
1409064.01
20
0.0
30
3.26
0
POINT
8
PERFIL_ELEVACION
10
1409064.16
20
0.0
30
5.26
0
POINT
8
PERFIL_ELEVACION
10
1409064.31
20
0.0
30
3.24
0
POINT
8
PERFIL_ELEVACION
10
1409064.31
20
0.0
30
3.68
0
POINT
8
PERFIL_ELEVACION
10
1409064.47
20
0.0
30
3.23
0
POINT
8
PERFIL_ELEVACION
10
1409064.47
20
0.0
30
5.24
0
POINT
8
PERFIL_ELEVACION
10
1409064.62
20
0.0
30
3.25
0
POINT
8
PERFIL_ELEVACION
10
1409064.62
20
0.0
30
3.35
0
POINT
8
PERFIL_ELEVACION
10
1409064.77
20
0.0
30
3.24
0
POINT
8
PERFIL_ELEVACION
10
1409064.77
20
0.0
30
5.24
0
POINT
8
PERFIL_ELEVACION
10
1409064.93
20
0.0
30
3.22
0
POINT
8
PERFIL_ELEVACION
10
1409064.93
20
0.0
30
5.24
0
POINT
8
PERFIL_ELEVACION
10
1409065.08
20
0.0
30
4.65
0
POINT
8
PERFIL_ELEVACION
10
1409065.23
20
0.0
30
3.23
0
POINT
8
PERFIL_ELEVACION
10
1409065.23
20
0.0
30
5.23
0
POINT
8
PERFIL_ELEVACION
10
1409065.38
20
0.0
30
3.17
0
POINT
8
PERFIL_ELEVACION
10
1409065.38
20
0.0
30
3.32
0
POINT
8
PERFIL_ELEVACION
10
1409065.54
20
0.0
30
3.23
0
POINT
8
PERFIL_ELEVACION
10
1409065.54
20
0.0
30
5.25
0
POINT
8
PERFIL_ELEVACION
10
1409065.69
20
0.0
30
3.21
0
POINT
8
PERFIL_ELEVACION
10
1409065.69
20
0.0
30
5.25
0
POINT
8
PERFIL_ELEVACION
10
1409065.84
20
0.0
30
3.21
0
POINT
8
PERFIL_ELEVACION
10
1409066
20
0.0
30
3.23
0
POINT
8
PERFIL_ELEVACION
10
1409066
20
0.0
30
5.21
0
POINT
8
PERFIL_ELEVACION
10
1409066.15
20
0.0
30
3.21
0
POINT
8
PERFIL_ELEVACION
10
1409066.15
20
0.0
30
3.24
0
POINT
8
PERFIL_ELEVACION
10
1409066.3
20
0.0
30
3.21
0
POINT
8
PERFIL_ELEVACION
10
1409066.3
20
0.0
30
3.34
0
POINT
8
PERFIL_ELEVACION
10
1409066.46
20
0.0
30
3.17
0
POINT
8
PERFIL_ELEVACION
10
1409066.46
20
0.0
30
5.23
0
POINT
8
PERFIL_ELEVACION
10
1409066.61
20
0.0
30
3.23
0
POINT
8
PERFIL_ELEVACION
10
1409066.61
20
0.0
30
5.22
0
POINT
8
PERFIL_ELEVACION
10
1409066.76
20
0.0
30
3.2
0
POINT
8
PERFIL_ELEVACION
10
1409066.76
20
0.0
30
3.24
0
POINT
8
PERFIL_ELEVACION
10
1409066.92
20
0.0
30
3.18
0
POINT
8
PERFIL_ELEVACION
10
1409066.92
20
0.0
30
5.22
0
POINT
8
PERFIL_ELEVACION
10
1409067.07
20
0.0
30
3.2
0
POINT
8
PERFIL_ELEVACION
10
1409067.07
20
0.0
30
5.22
0
POINT
8
PERFIL_ELEVACION
10
1409067.22
20
0.0
30
3.18
0
POINT
8
PERFIL_ELEVACION
10
1409067.22
20
0.0
30
4.68
0
POINT
8
PERFIL_ELEVACION
10
1409067.38
20
0.0
30
3.21
0
POINT
8
PERFIL_ELEVACION
10
1409067.38
20
0.0
30
3.31
0
POINT
8
PERFIL_ELEVACION
10
1409067.53
20
0.0
30
3.2
0
POINT
8
PERFIL_ELEVACION
10
1409067.53
20
0.0
30
3.2
0
POINT
8
PERFIL_ELEVACION
10
1409067.68
20
0.0
30
3.19
0
POINT
8
PERFIL_ELEVACION
10
1409067.68
20
0.0
30
3.19
0
POINT
8
PERFIL_ELEVACION
10
1409067.84
20
0.0
30
3.17
0
POINT
8
PERFIL_ELEVACION
10
1409067.84
20
0.0
30
3.19
0
POINT
8
PERFIL_ELEVACION
10
1409067.99
20
0.0
30
3.16
0
POINT
8
PERFIL_ELEVACION
10
1409067.99
20
0.0
30
3.18
0
POINT
8
PERFIL_ELEVACION
10
1409068.14
20
0.0
30
3.18
0
POINT
8
PERFIL_ELEVACION
10
1409068.14
20
0.0
30
3.18
0
POINT
8
PERFIL_ELEVACION
10
1409068.3
20
0.0
30
3.15
0
POINT
8
PERFIL_ELEVACION
10
1409068.3
20
0.0
30
3.18
0
POINT
8
PERFIL_ELEVACION
10
1409068.45
20
0.0
30
3.17
0
POINT
8
PERFIL_ELEVACION
10
1409068.6
20
0.0
30
3.16
0
POINT
8
PERFIL_ELEVACION
10
1409068.6
20
0.0
30
3.16
0
POINT
8
PERFIL_ELEVACION
10
1409068.76
20
0.0
30
3.17
0
POINT
8
PERFIL_ELEVACION
10
1409068.91
20
0.0
30
3.15
0
POINT
8
PERFIL_ELEVACION
10
1409068.91
20
0.0
30
3.15
0
POINT
8
PERFIL_ELEVACION
10
1409069.06
20
0.0
30
3.14
0
POINT
8
PERFIL_ELEVACION
10
1409069.06
20
0.0
30
3.15
0
POINT
8
PERFIL_ELEVACION
10
1409069.22
20
0.0
30
3.14
0
POINT
8
PERFIL_ELEVACION
10
1409069.37
20
0.0
30
3.13
0
POINT
8
PERFIL_ELEVACION
10
1409069.37
20
0.0
30
3.15
0
POINT
8
PERFIL_ELEVACION
10
1409069.52
20
0.0
30
3.12
0
POINT
8
PERFIL_ELEVACION
10
1409069.52
20
0.0
30
3.13
0
POINT
8
PERFIL_ELEVACION
10
1409069.68
20
0.0
30
3.12
0
POINT
8
PERFIL_ELEVACION
10
1409069.68
20
0.0
30
3.13
0
POINT
8
PERFIL_ELEVACION
10
1409069.83
20
0.0
30
3.14
0
POINT
8
PERFIL_ELEVACION
10
1409069.98
20
0.0
30
3.11
0
POINT
8
PERFIL_ELEVACION
10
1409069.98
20
0.0
30
3.13
0
POINT
8
PERFIL_ELEVACION
10
1409070.14
20
0.0
30
3.12
0
POINT
8
PERFIL_ELEVACION
10
1409070.14
20
0.0
30
3.13
0
POINT
8
PERFIL_ELEVACION
10
1409070.29
20
0.0
30
3.1
0
POINT
8
PERFIL_ELEVACION
10
1409070.29
20
0.0
30
3.12
0
POINT
8
PERFIL_ELEVACION
10
1409070.44
20
0.0
30
3.1
0
POINT
8
PERFIL_ELEVACION
10
1409070.44
20
0.0
30
3.12
0
POINT
8
PERFIL_ELEVACION
10
1409070.59
20
0.0
30
3.1
0
POINT
8
PERFIL_ELEVACION
10
1409070.59
20
0.0
30
3.11
0
POINT
8
PERFIL_ELEVACION
10
1409070.75
20
0.0
30
3.1
0
POINT
8
PERFIL_ELEVACION
10
1409070.75
20
0.0
30
3.12
0
POINT
8
PERFIL_ELEVACION
10
1409070.9
20
0.0
30
3.1
0
POINT
8
PERFIL_ELEVACION
10
1409070.9
20
0.0
30
3.11
0
POINT
8
PERFIL_ELEVACION
10
1409071.05
20
0.0
30
3.09
0
POINT
8
PERFIL_ELEVACION
10
1409071.05
20
0.0
30
3.11
0
POINT
8
PERFIL_ELEVACION
10
1409071.21
20
0.0
30
3.1
0
POINT
8
PERFIL_ELEVACION
10
1409071.36
20
0.0
30
3.08
0
POINT
8
PERFIL_ELEVACION
10
1409071.36
20
0.0
30
3.09
0
POINT
8
PERFIL_ELEVACION
10
1409071.51
20
0.0
30
3.08
0
POINT
8
PERFIL_ELEVACION
10
1409071.51
20
0.0
30
3.1
0
POINT
8
PERFIL_ELEVACION
10
1409071.67
20
0.0
30
3.08
0
POINT
8
PERFIL_ELEVACION
10
1409071.82
20
0.0
30
3.08
0
POINT
8
PERFIL_ELEVACION
10
1409071.82
20
0.0
30
3.09
0
POINT
8
PERFIL_ELEVACION
10
1409071.97
20
0.0
30
3.07
0
POINT
8
PERFIL_ELEVACION
10
1409072.13
20
0.0
30
3.06
0
POINT
8
PERFIL_ELEVACION
10
1409072.13
20
0.0
30
3.08
0
POINT
8
PERFIL_ELEVACION
10
1409072.28
20
0.0
30
3.06
0
POINT
8
PERFIL_ELEVACION
10
1409072.28
20
0.0
30
3.08
0
POINT
8
PERFIL_ELEVACION
10
1409072.43
20
0.0
30
3.05
0
POINT
8
PERFIL_ELEVACION
10
1409072.43
20
0.0
30
3.07
0
POINT
8
PERFIL_ELEVACION
10
1409072.59
20
0.0
30
3.06
0
POINT
8
PERFIL_ELEVACION
10
1409072.59
20
0.0
30
3.08
0
POINT
8
PERFIL_ELEVACION
10
1409072.74
20
0.0
30
3.05
0
POINT
8
PERFIL_ELEVACION
10
1409072.74
20
0.0
30
3.07
0
POINT
8
PERFIL_ELEVACION
10
1409072.89
20
0.0
30
3.05
0
POINT
8
PERFIL_ELEVACION
10
1409072.89
20
0.0
30
3.06
0
POINT
8
PERFIL_ELEVACION
10
1409073.05
20
0.0
30
3.04
0
POINT
8
PERFIL_ELEVACION
10
1409073.05
20
0.0
30
3.07
0
POINT
8
PERFIL_ELEVACION
10
1409073.2
20
0.0
30
3.05
0
POINT
8
PERFIL_ELEVACION
10
1409073.2
20
0.0
30
3.06
0
POINT
8
PERFIL_ELEVACION
10
1409073.35
20
0.0
30
3.04
0
POINT
8
PERFIL_ELEVACION
10
1409073.35
20
0.0
30
3.06
0
POINT
8
PERFIL_ELEVACION
10
1409073.51
20
0.0
30
3.04
0
POINT
8
PERFIL_ELEVACION
10
1409073.51
20
0.0
30
3.06
0
POINT
8
PERFIL_ELEVACION
10
1409073.66
20
0.0
30
3.05
0
POINT
8
PERFIL_ELEVACION
10
1409073.66
20
0.0
30
3.06
0
POINT
8
PERFIL_ELEVACION
10
1409073.81
20
0.0
30
3.04
0
POINT
8
PERFIL_ELEVACION
10
1409073.81
20
0.0
30
3.06
0
POINT
8
PERFIL_ELEVACION
10
1409073.97
20
0.0
30
3.03
0
POINT
8
PERFIL_ELEVACION
10
1409073.97
20
0.0
30
3.03
0
POINT
8
PERFIL_ELEVACION
10
1409074.12
20
0.0
30
3.03
0
POINT
8
PERFIL_ELEVACION
10
1409074.27
20
0.0
30
3.03
0
POINT
8
PERFIL_ELEVACION
10
1409074.43
20
0.0
30
3.03
0
POINT
8
PERFIL_ELEVACION
10
1409074.43
20
0.0
30
3.03
0
POINT
8
PERFIL_ELEVACION
10
1409074.58
20
0.0
30
3.02
0
POINT
8
PERFIL_ELEVACION
10
1409074.58
20
0.0
30
3.03
0
POINT
8
PERFIL_ELEVACION
10
1409074.73
20
0.0
30
3.02
0
POINT
8
PERFIL_ELEVACION
10
1409074.73
20
0.0
30
3.02
0
POINT
8
PERFIL_ELEVACION
10
1409074.89
20
0.0
30
3.01
0
POINT
8
PERFIL_ELEVACION
10
1409074.89
20
0.0
30
3.03
0
POINT
8
PERFIL_ELEVACION
10
1409075.04
20
0.0
30
3.01
0
POINT
8
PERFIL_ELEVACION
10
1409075.04
20
0.0
30
3.02
0
POINT
8
PERFIL_ELEVACION
10
1409075.19
20
0.0
30
3
0
POINT
8
PERFIL_ELEVACION
10
1409075.19
20
0.0
30
3.01
0
POINT
8
PERFIL_ELEVACION
10
1409075.35
20
0.0
30
2.99
0
POINT
8
PERFIL_ELEVACION
10
1409075.35
20
0.0
30
3.02
0
POINT
8
PERFIL_ELEVACION
10
1409075.5
20
0.0
30
2.99
0
POINT
8
PERFIL_ELEVACION
10
1409075.5
20
0.0
30
3
0
POINT
8
PERFIL_ELEVACION
10
1409075.65
20
0.0
30
2.98
0
POINT
8
PERFIL_ELEVACION
10
1409075.65
20
0.0
30
2.99
0
POINT
8
PERFIL_ELEVACION
10
1409075.8
20
0.0
30
2.98
0
POINT
8
PERFIL_ELEVACION
10
1409075.8
20
0.0
30
3
0
POINT
8
PERFIL_ELEVACION
10
1409075.96
20
0.0
30
2.98
0
POINT
8
PERFIL_ELEVACION
10
1409075.96
20
0.0
30
2.99
0
POINT
8
PERFIL_ELEVACION
10
1409076.11
20
0.0
30
2.97
0
POINT
8
PERFIL_ELEVACION
10
1409076.11
20
0.0
30
3
0
POINT
8
PERFIL_ELEVACION
10
1409076.26
20
0.0
30
2.97
0
POINT
8
PERFIL_ELEVACION
10
1409076.26
20
0.0
30
2.99
0
POINT
8
PERFIL_ELEVACION
10
1409076.42
20
0.0
30
2.98
0
POINT
8
PERFIL_ELEVACION
10
1409076.42
20
0.0
30
2.99
0
POINT
8
PERFIL_ELEVACION
10
1409076.57
20
0.0
30
2.98
0
POINT
8
PERFIL_ELEVACION
10
1409076.57
20
0.0
30
2.99
0
POINT
8
PERFIL_ELEVACION
10
1409076.72
20
0.0
30
2.97
0
POINT
8
PERFIL_ELEVACION
10
1409076.72
20
0.0
30
2.99
0
POINT
8
PERFIL_ELEVACION
10
1409076.88
20
0.0
30
2.96
0
POINT
8
PERFIL_ELEVACION
10
1409076.88
20
0.0
30
2.97
0
POINT
8
PERFIL_ELEVACION
10
1409077.03
20
0.0
30
2.95
0
POINT
8
PERFIL_ELEVACION
10
1409077.03
20
0.0
30
2.97
0
POINT
8
PERFIL_ELEVACION
10
1409077.18
20
0.0
30
2.96
0
POINT
8
PERFIL_ELEVACION
10
1409077.34
20
0.0
30
2.94
0
POINT
8
PERFIL_ELEVACION
10
1409077.34
20
0.0
30
2.96
0
POINT
8
PERFIL_ELEVACION
10
1409077.49
20
0.0
30
2.95
0
POINT
8
PERFIL_ELEVACION
10
1409077.64
20
0.0
30
2.94
0
POINT
8
PERFIL_ELEVACION
10
1409077.64
20
0.0
30
2.96
0
POINT
8
PERFIL_ELEVACION
10
1409077.8
20
0.0
30
2.94
0
POINT
8
PERFIL_ELEVACION
10
1409077.8
20
0.0
30
2.97
0
POINT
8
PERFIL_ELEVACION
10
1409078.1
20
0.0
30
2.94
0
POINT
8
PERFIL_ELEVACION
10
1409078.1
20
0.0
30
2.95
0
POINT
8
PERFIL_ELEVACION
10
1409078.26
20
0.0
30
2.94
0
POINT
8
PERFIL_ELEVACION
10
1409078.26
20
0.0
30
2.95
0
POINT
8
PERFIL_ELEVACION
10
1409078.41
20
0.0
30
2.93
0
POINT
8
PERFIL_ELEVACION
10
1409078.41
20
0.0
30
2.94
0
POINT
8
PERFIL_ELEVACION
10
1409078.56
20
0.0
30
2.94
0
POINT
8
PERFIL_ELEVACION
10
1409078.56
20
0.0
30
2.95
0
POINT
8
PERFIL_ELEVACION
10
1409078.72
20
0.0
30
2.93
0
POINT
8
PERFIL_ELEVACION
10
1409078.72
20
0.0
30
2.94
0
POINT
8
PERFIL_ELEVACION
10
1409078.87
20
0.0
30
2.92
0
POINT
8
PERFIL_ELEVACION
10
1409079.02
20
0.0
30
2.94
0
POINT
8
PERFIL_ELEVACION
10
1409079.18
20
0.0
30
2.92
0
POINT
8
PERFIL_ELEVACION
10
1409079.18
20
0.0
30
2.94
0
POINT
8
PERFIL_ELEVACION
10
1409079.33
20
0.0
30
2.93
0
POINT
8
PERFIL_ELEVACION
10
1409079.33
20
0.0
30
2.94
0
POINT
8
PERFIL_ELEVACION
10
1409079.48
20
0.0
30
2.92
0
POINT
8
PERFIL_ELEVACION
10
1409079.64
20
0.0
30
2.92
0
POINT
8
PERFIL_ELEVACION
10
1409079.64
20
0.0
30
2.93
0
POINT
8
PERFIL_ELEVACION
10
1409079.79
20
0.0
30
2.91
0
POINT
8
PERFIL_ELEVACION
10
1409079.79
20
0.0
30
2.93
0
POINT
8
PERFIL_ELEVACION
10
1409079.94
20
0.0
30
2.91
0
POINT
8
PERFIL_ELEVACION
10
1409079.94
20
0.0
30
2.93
0
POINT
8
PERFIL_ELEVACION
10
1409080.1
20
0.0
30
2.9
0
POINT
8
PERFIL_ELEVACION
10
1409080.1
20
0.0
30
2.92
0
POINT
8
PERFIL_ELEVACION
10
1409080.25
20
0.0
30
2.89
0
POINT
8
PERFIL_ELEVACION
10
1409080.25
20
0.0
30
2.92
0
POINT
8
PERFIL_ELEVACION
10
1409080.4
20
0.0
30
2.89
0
POINT
8
PERFIL_ELEVACION
10
1409080.4
20
0.0
30
2.89
0
POINT
8
PERFIL_ELEVACION
10
1409080.55
20
0.0
30
2.89
0
POINT
8
PERFIL_ELEVACION
10
1409080.55
20
0.0
30
2.91
0
POINT
8
PERFIL_ELEVACION
10
1409080.71
20
0.0
30
2.88
0
POINT
8
PERFIL_ELEVACION
10
1409080.86
20
0.0
30
2.89
0
POINT
8
PERFIL_ELEVACION
10
1409080.86
20
0.0
30
2.9
0
POINT
8
PERFIL_ELEVACION
10
1409081.01
20
0.0
30
2.88
0
POINT
8
PERFIL_ELEVACION
10
1409081.01
20
0.0
30
2.91
0
POINT
8
PERFIL_ELEVACION
10
1409081.17
20
0.0
30
2.88
0
POINT
8
PERFIL_ELEVACION
10
1409081.17
20
0.0
30
2.89
0
POINT
8
PERFIL_ELEVACION
10
1409081.32
20
0.0
30
2.88
0
POINT
8
PERFIL_ELEVACION
10
1409081.32
20
0.0
30
2.9
0
POINT
8
PERFIL_ELEVACION
10
1409081.47
20
0.0
30
2.88
0
POINT
8
PERFIL_ELEVACION
10
1409081.63
20
0.0
30
2.88
0
POINT
8
PERFIL_ELEVACION
10
1409081.63
20
0.0
30
2.88
0
POINT
8
PERFIL_ELEVACION
10
1409081.78
20
0.0
30
2.87
0
POINT
8
PERFIL_ELEVACION
10
1409081.78
20
0.0
30
3.08
0
POINT
8
PERFIL_ELEVACION
10
1409081.93
20
0.0
30
2.88
0
POINT
8
PERFIL_ELEVACION
10
1409081.93
20
0.0
30
3.07
0
POINT
8
PERFIL_ELEVACION
10
1409082.09
20
0.0
30
2.86
0
POINT
8
PERFIL_ELEVACION
10
1409082.09
20
0.0
30
3.1
0
POINT
8
PERFIL_ELEVACION
10
1409082.24
20
0.0
30
3.1
0
POINT
8
PERFIL_ELEVACION
10
1409082.39
20
0.0
30
3.08
0
POINT
8
PERFIL_ELEVACION
10
1409082.39
20
0.0
30
3.11
0
POINT
8
PERFIL_ELEVACION
10
1409082.55
20
0.0
30
3.04
0
POINT
8
PERFIL_ELEVACION
10
1409082.55
20
0.0
30
3.09
0
POINT
8
PERFIL_ELEVACION
10
1409082.7
20
0.0
30
3.1
0
POINT
8
PERFIL_ELEVACION
10
1409082.85
20
0.0
30
3.05
0
POINT
8
PERFIL_ELEVACION
10
1409082.85
20
0.0
30
3.13
0
POINT
8
PERFIL_ELEVACION
10
1409083.01
20
0.0
30
3.07
0
POINT
8
PERFIL_ELEVACION
10
1409083.01
20
0.0
30
3.09
0
POINT
8
PERFIL_ELEVACION
10
1409083.16
20
0.0
30
3.03
0
POINT
8
PERFIL_ELEVACION
10
1409083.16
20
0.0
30
3.09
0
POINT
8
PERFIL_ELEVACION
10
1409083.31
20
0.0
30
3.05
0
POINT
8
PERFIL_ELEVACION
10
1409083.31
20
0.0
30
3.05
0
POINT
8
PERFIL_ELEVACION
10
1409083.47
20
0.0
30
3.05
0
POINT
8
PERFIL_ELEVACION
10
1409083.62
20
0.0
30
3.04
0
POINT
8
PERFIL_ELEVACION
10
1409083.77
20
0.0
30
3.05
0
POINT
8
PERFIL_ELEVACION
10
1409083.77
20
0.0
30
3.09
0
POINT
8
PERFIL_ELEVACION
10
1409083.93
20
0.0
30
2.34
0
POINT
8
PERFIL_ELEVACION
10
1409083.93
20
0.0
30
3.08
0
POINT
8
PERFIL_ELEVACION
10
1409084.08
20
0.0
30
1.66
0
POINT
8
PERFIL_ELEVACION
10
1409084.08
20
0.0
30
3.08
0
POINT
8
PERFIL_ELEVACION
10
1409084.23
20
0.0
30
1.66
0
POINT
8
PERFIL_ELEVACION
10
1409084.23
20
0.0
30
3.07
0
POINT
8
PERFIL_ELEVACION
10
1409084.39
20
0.0
30
1.77
0
POINT
8
PERFIL_ELEVACION
10
1409084.39
20
0.0
30
3.08
0
POINT
8
PERFIL_ELEVACION
10
1409084.54
20
0.0
30
1.63
0
POINT
8
PERFIL_ELEVACION
10
1409084.54
20
0.0
30
3.06
0
POINT
8
PERFIL_ELEVACION
10
1409084.69
20
0.0
30
1.64
0
POINT
8
PERFIL_ELEVACION
10
1409084.69
20
0.0
30
3.06
0
POINT
8
PERFIL_ELEVACION
10
1409084.85
20
0.0
30
1.69
0
POINT
8
PERFIL_ELEVACION
10
1409085
20
0.0
30
1.64
0
POINT
8
PERFIL_ELEVACION
10
1409085.15
20
0.0
30
1.64
0
POINT
8
PERFIL_ELEVACION
10
1409085.15
20
0.0
30
2.62
0
POINT
8
PERFIL_ELEVACION
10
1409085.31
20
0.0
30
1.65
0
POINT
8
PERFIL_ELEVACION
10
1409085.31
20
0.0
30
3.07
0
POINT
8
PERFIL_ELEVACION
10
1409085.46
20
0.0
30
1.65
0
POINT
8
PERFIL_ELEVACION
10
1409085.46
20
0.0
30
2.74
0
POINT
8
PERFIL_ELEVACION
10
1409085.61
20
0.0
30
1.65
0
POINT
8
PERFIL_ELEVACION
10
1409085.61
20
0.0
30
3.1
0
POINT
8
PERFIL_ELEVACION
10
1409085.76
20
0.0
30
1.67
0
POINT
8
PERFIL_ELEVACION
10
1409085.76
20
0.0
30
3.09
0
POINT
8
PERFIL_ELEVACION
10
1409085.92
20
0.0
30
1.79
0
POINT
8
PERFIL_ELEVACION
10
1409085.92
20
0.0
30
3.08
0
POINT
8
PERFIL_ELEVACION
10
1409086.07
20
0.0
30
3.1
0
POINT
8
PERFIL_ELEVACION
10
1409086.07
20
0.0
30
3.13
0
POINT
8
PERFIL_ELEVACION
10
1409086.22
20
0.0
30
3.12
0
POINT
8
PERFIL_ELEVACION
10
1409086.22
20
0.0
30
3.13
0
POINT
8
PERFIL_ELEVACION
10
1409086.38
20
0.0
30
3.1
0
POINT
8
PERFIL_ELEVACION
10
1409086.38
20
0.0
30
3.14
0
POINT
8
PERFIL_ELEVACION
10
1409086.53
20
0.0
30
3.1
0
POINT
8
PERFIL_ELEVACION
10
1409086.53
20
0.0
30
3.36
0
POINT
8
PERFIL_ELEVACION
10
1409086.68
20
0.0
30
3.1
0
POINT
8
PERFIL_ELEVACION
10
1409086.68
20
0.0
30
3.13
0
POINT
8
PERFIL_ELEVACION
10
1409086.84
20
0.0
30
3.1
0
POINT
8
PERFIL_ELEVACION
10
1409086.99
20
0.0
30
3.11
0
POINT
8
PERFIL_ELEVACION
10
1409086.99
20
0.0
30
3.13
0
POINT
8
PERFIL_ELEVACION
10
1409087.14
20
0.0
30
3.05
0
POINT
8
PERFIL_ELEVACION
10
1409087.14
20
0.0
30
3.12
0
POINT
8
PERFIL_ELEVACION
10
1409087.3
20
0.0
30
3.09
0
POINT
8
PERFIL_ELEVACION
10
1409087.3
20
0.0
30
3.1
0
POINT
8
PERFIL_ELEVACION
10
1409087.45
20
0.0
30
3.09
0
POINT
8
PERFIL_ELEVACION
10
1409087.6
20
0.0
30
2.9
0
POINT
8
PERFIL_ELEVACION
10
1409087.6
20
0.0
30
3.09
0
POINT
8
PERFIL_ELEVACION
10
1409087.76
20
0.0
30
2.9
0
POINT
8
PERFIL_ELEVACION
10
1409087.76
20
0.0
30
3.08
0
POINT
8
PERFIL_ELEVACION
10
1409087.91
20
0.0
30
2.89
0
POINT
8
PERFIL_ELEVACION
10
1409087.91
20
0.0
30
3.01
0
POINT
8
PERFIL_ELEVACION
10
1409088.06
20
0.0
30
2.88
0
POINT
8
PERFIL_ELEVACION
10
1409088.06
20
0.0
30
2.91
0
POINT
8
PERFIL_ELEVACION
10
1409088.22
20
0.0
30
2.91
0
POINT
8
PERFIL_ELEVACION
10
1409088.22
20
0.0
30
2.91
0
POINT
8
PERFIL_ELEVACION
10
1409088.37
20
0.0
30
2.88
0
POINT
8
PERFIL_ELEVACION
10
1409088.37
20
0.0
30
2.92
0
POINT
8
PERFIL_ELEVACION
10
1409088.52
20
0.0
30
2.88
0
POINT
8
PERFIL_ELEVACION
10
1409088.52
20
0.0
30
2.91
0
POINT
8
PERFIL_ELEVACION
10
1409088.68
20
0.0
30
2.89
0
POINT
8
PERFIL_ELEVACION
10
1409088.68
20
0.0
30
2.92
0
POINT
8
PERFIL_ELEVACION
10
1409088.83
20
0.0
30
2.92
0
POINT
8
PERFIL_ELEVACION
10
1409088.83
20
0.0
30
2.92
0
POINT
8
PERFIL_ELEVACION
10
1409088.98
20
0.0
30
2.89
0
POINT
8
PERFIL_ELEVACION
10
1409089.14
20
0.0
30
2.89
0
POINT
8
PERFIL_ELEVACION
10
1409089.14
20
0.0
30
2.9
0
POINT
8
PERFIL_ELEVACION
10
1409089.29
20
0.0
30
2.9
0
POINT
8
PERFIL_ELEVACION
10
1409089.29
20
0.0
30
2.95
0
POINT
8
PERFIL_ELEVACION
10
1409089.44
20
0.0
30
2.9
0
POINT
8
PERFIL_ELEVACION
10
1409089.44
20
0.0
30
2.94
0
POINT
8
PERFIL_ELEVACION
10
1409089.6
20
0.0
30
2.91
0
POINT
8
PERFIL_ELEVACION
10
1409089.6
20
0.0
30
2.96
0
POINT
8
PERFIL_ELEVACION
10
1409089.75
20
0.0
30
2.92
0
POINT
8
PERFIL_ELEVACION
10
1409089.75
20
0.0
30
2.96
0
POINT
8
PERFIL_ELEVACION
10
1409089.9
20
0.0
30
2.92
0
POINT
8
PERFIL_ELEVACION
10
1409089.9
20
0.0
30
2.95
0
POINT
8
PERFIL_ELEVACION
10
1409090.06
20
0.0
30
2.92
0
POINT
8
PERFIL_ELEVACION
10
1409090.06
20
0.0
30
2.96
0
POINT
8
PERFIL_ELEVACION
10
1409090.21
20
0.0
30
2.93
0
POINT
8
PERFIL_ELEVACION
10
1409090.21
20
0.0
30
2.97
0
POINT
8
PERFIL_ELEVACION
10
1409090.36
20
0.0
30
2.94
0
POINT
8
PERFIL_ELEVACION
10
1409090.36
20
0.0
30
2.98
0
POINT
8
PERFIL_ELEVACION
10
1409090.52
20
0.0
30
2.97
0
POINT
8
PERFIL_ELEVACION
10
1409090.67
20
0.0
30
2.93
0
POINT
8
PERFIL_ELEVACION
10
1409090.67
20
0.0
30
2.96
0
POINT
8
PERFIL_ELEVACION
10
1409090.82
20
0.0
30
2.92
0
POINT
8
PERFIL_ELEVACION
10
1409090.97
20
0.0
30
2.97
0
POINT
8
PERFIL_ELEVACION
10
1409090.97
20
0.0
30
2.98
0
POINT
8
PERFIL_ELEVACION
10
1409091.13
20
0.0
30
2.95
0
POINT
8
PERFIL_ELEVACION
10
1409091.13
20
0.0
30
2.98
0
POINT
8
PERFIL_ELEVACION
10
1409091.28
20
0.0
30
2.94
0
POINT
8
PERFIL_ELEVACION
10
1409091.28
20
0.0
30
2.98
0
POINT
8
PERFIL_ELEVACION
10
1409091.43
20
0.0
30
2.94
0
POINT
8
PERFIL_ELEVACION
10
1409091.43
20
0.0
30
3
0
POINT
8
PERFIL_ELEVACION
10
1409091.59
20
0.0
30
2.96
0
POINT
8
PERFIL_ELEVACION
10
1409091.74
20
0.0
30
2.96
0
POINT
8
PERFIL_ELEVACION
10
1409091.74
20
0.0
30
2.99
0
POINT
8
PERFIL_ELEVACION
10
1409091.89
20
0.0
30
2.95
0
POINT
8
PERFIL_ELEVACION
10
1409091.89
20
0.0
30
3
0
POINT
8
PERFIL_ELEVACION
10
1409092.05
20
0.0
30
2.95
0
POINT
8
PERFIL_ELEVACION
10
1409092.05
20
0.0
30
3.01
0
POINT
8
PERFIL_ELEVACION
10
1409092.2
20
0.0
30
2.96
0
POINT
8
PERFIL_ELEVACION
10
1409092.2
20
0.0
30
3.03
0
POINT
8
PERFIL_ELEVACION
10
1409092.35
20
0.0
30
3
0
POINT
8
PERFIL_ELEVACION
10
1409092.35
20
0.0
30
3.03
0
POINT
8
PERFIL_ELEVACION
10
1409092.51
20
0.0
30
2.96
0
POINT
8
PERFIL_ELEVACION
10
1409092.51
20
0.0
30
3.01
0
POINT
8
PERFIL_ELEVACION
10
1409092.66
20
0.0
30
2.97
0
POINT
8
PERFIL_ELEVACION
10
1409092.66
20
0.0
30
2.97
0
POINT
8
PERFIL_ELEVACION
10
1409092.97
20
0.0
30
3
0
POINT
8
PERFIL_ELEVACION
10
1409093.12
20
0.0
30
3
0
POINT
8
PERFIL_ELEVACION
10
1409093.12
20
0.0
30
3.02
0
POINT
8
PERFIL_ELEVACION
10
1409093.27
20
0.0
30
2.99
0
POINT
8
PERFIL_ELEVACION
10
1409093.27
20
0.0
30
3.03
0
POINT
8
PERFIL_ELEVACION
10
1409093.43
20
0.0
30
2.98
0
POINT
8
PERFIL_ELEVACION
10
1409093.43
20
0.0
30
3.02
0
POINT
8
PERFIL_ELEVACION
10
1409093.58
20
0.0
30
2.97
0
POINT
8
PERFIL_ELEVACION
10
1409093.73
20
0.0
30
2.97
0
POINT
8
PERFIL_ELEVACION
10
1409093.73
20
0.0
30
3.02
0
POINT
8
PERFIL_ELEVACION
10
1409093.89
20
0.0
30
3.01
0
POINT
8
PERFIL_ELEVACION
10
1409093.89
20
0.0
30
3.03
0
POINT
8
PERFIL_ELEVACION
10
1409094.04
20
0.0
30
2.98
0
POINT
8
PERFIL_ELEVACION
10
1409094.04
20
0.0
30
3.03
0
POINT
8
PERFIL_ELEVACION
10
1409094.19
20
0.0
30
2.98
0
POINT
8
PERFIL_ELEVACION
10
1409094.19
20
0.0
30
3.02
0
POINT
8
PERFIL_ELEVACION
10
1409094.35
20
0.0
30
2.99
0
POINT
8
PERFIL_ELEVACION
10
1409094.35
20
0.0
30
3.03
0
POINT
8
PERFIL_ELEVACION
10
1409094.5
20
0.0
30
3.01
0
POINT
8
PERFIL_ELEVACION
10
1409094.5
20
0.0
30
3.05
0
POINT
8
PERFIL_ELEVACION
10
1409094.65
20
0.0
30
3.05
0
POINT
8
PERFIL_ELEVACION
10
1409094.81
20
0.0
30
3
0
POINT
8
PERFIL_ELEVACION
10
1409094.81
20
0.0
30
3.05
0
POINT
8
PERFIL_ELEVACION
10
1409094.96
20
0.0
30
3.03
0
POINT
8
PERFIL_ELEVACION
10
1409094.96
20
0.0
30
3.04
0
POINT
8
PERFIL_ELEVACION
10
1409095.11
20
0.0
30
3
0
POINT
8
PERFIL_ELEVACION
10
1409095.11
20
0.0
30
3.01
0
POINT
8
PERFIL_ELEVACION
10
1409095.27
20
0.0
30
3.04
0
POINT
8
PERFIL_ELEVACION
10
1409095.27
20
0.0
30
3.05
0
POINT
8
PERFIL_ELEVACION
10
1409095.42
20
0.0
30
3.01
0
POINT
8
PERFIL_ELEVACION
10
1409095.42
20
0.0
30
3.07
0
POINT
8
PERFIL_ELEVACION
10
1409095.57
20
0.0
30
3.02
0
POINT
8
PERFIL_ELEVACION
10
1409095.57
20
0.0
30
3.06
0
POINT
8
PERFIL_ELEVACION
10
1409095.73
20
0.0
30
3.03
0
POINT
8
PERFIL_ELEVACION
10
1409095.73
20
0.0
30
3.07
0
POINT
8
PERFIL_ELEVACION
10
1409095.88
20
0.0
30
3.03
0
POINT
8
PERFIL_ELEVACION
10
1409095.88
20
0.0
30
3.04
0
POINT
8
PERFIL_ELEVACION
10
1409096.03
20
0.0
30
3.02
0
POINT
8
PERFIL_ELEVACION
10
1409096.03
20
0.0
30
3.06
0
POINT
8
PERFIL_ELEVACION
10
1409096.18
20
0.0
30
3.06
0
POINT
8
PERFIL_ELEVACION
10
1409096.18
20
0.0
30
3.07
0
POINT
8
PERFIL_ELEVACION
10
1409096.34
20
0.0
30
3.04
0
POINT
8
PERFIL_ELEVACION
10
1409096.34
20
0.0
30
3.08
0
POINT
8
PERFIL_ELEVACION
10
1409096.49
20
0.0
30
3.07
0
POINT
8
PERFIL_ELEVACION
10
1409096.64
20
0.0
30
3.06
0
POINT
8
PERFIL_ELEVACION
10
1409096.64
20
0.0
30
3.06
0
POINT
8
PERFIL_ELEVACION
10
1409096.8
20
0.0
30
3.05
0
POINT
8
PERFIL_ELEVACION
10
1409096.8
20
0.0
30
3.08
0
POINT
8
PERFIL_ELEVACION
10
1409096.95
20
0.0
30
3.08
0
POINT
8
PERFIL_ELEVACION
10
1409097.1
20
0.0
30
3.04
0
POINT
8
PERFIL_ELEVACION
10
1409097.1
20
0.0
30
3.08
0
POINT
8
PERFIL_ELEVACION
10
1409097.26
20
0.0
30
3.05
0
POINT
8
PERFIL_ELEVACION
10
1409097.26
20
0.0
30
3.09
0
POINT
8
PERFIL_ELEVACION
10
1409097.41
20
0.0
30
3.05
0
POINT
8
PERFIL_ELEVACION
10
1409097.41
20
0.0
30
3.09
0
POINT
8
PERFIL_ELEVACION
10
1409097.56
20
0.0
30
3.07
0
POINT
8
PERFIL_ELEVACION
10
1409097.56
20
0.0
30
3.09
0
POINT
8
PERFIL_ELEVACION
10
1409097.72
20
0.0
30
3.07
0
POINT
8
PERFIL_ELEVACION
10
1409097.72
20
0.0
30
3.11
0
POINT
8
PERFIL_ELEVACION
10
1409097.87
20
0.0
30
3.08
0
POINT
8
PERFIL_ELEVACION
10
1409098.02
20
0.0
30
3.07
0
POINT
8
PERFIL_ELEVACION
10
1409098.02
20
0.0
30
3.1
0
POINT
8
PERFIL_ELEVACION
10
1409098.18
20
0.0
30
3.08
0
POINT
8
PERFIL_ELEVACION
10
1409098.18
20
0.0
30
3.09
0
POINT
8
PERFIL_ELEVACION
10
1409098.33
20
0.0
30
3.07
0
POINT
8
PERFIL_ELEVACION
10
1409098.48
20
0.0
30
3.08
0
POINT
8
PERFIL_ELEVACION
10
1409098.48
20
0.0
30
3.31
0
POINT
8
PERFIL_ELEVACION
10
1409098.64
20
0.0
30
3.08
0
POINT
8
PERFIL_ELEVACION
10
1409098.64
20
0.0
30
3.37
0
POINT
8
PERFIL_ELEVACION
10
1409098.79
20
0.0
30
3.23
0
POINT
8
PERFIL_ELEVACION
10
1409098.79
20
0.0
30
3.31
0
POINT
8
PERFIL_ELEVACION
10
1409098.94
20
0.0
30
3.16
0
POINT
8
PERFIL_ELEVACION
10
1409098.94
20
0.0
30
5.36
0
POINT
8
PERFIL_ELEVACION
10
1409099.1
20
0.0
30
3.27
0
POINT
8
PERFIL_ELEVACION
10
1409099.1
20
0.0
30
3.41
0
POINT
8
PERFIL_ELEVACION
10
1409099.25
20
0.0
30
3.25
0
POINT
8
PERFIL_ELEVACION
10
1409099.25
20
0.0
30
3.3
0
POINT
8
PERFIL_ELEVACION
10
1409099.4
20
0.0
30
3.24
0
POINT
8
PERFIL_ELEVACION
10
1409099.4
20
0.0
30
6.21
0
POINT
8
PERFIL_ELEVACION
10
1409099.56
20
0.0
30
3.34
0
POINT
8
PERFIL_ELEVACION
10
1409099.56
20
0.0
30
3.41
0
POINT
8
PERFIL_ELEVACION
10
1409099.71
20
0.0
30
3.29
0
POINT
8
PERFIL_ELEVACION
10
1409099.71
20
0.0
30
6.1
0
POINT
8
PERFIL_ELEVACION
10
1409099.86
20
0.0
30
3.29
0
POINT
8
PERFIL_ELEVACION
10
1409099.86
20
0.0
30
3.39
0
POINT
8
PERFIL_ELEVACION
10
1409100.02
20
0.0
30
3.34
0
POINT
8
PERFIL_ELEVACION
10
1409100.17
20
0.0
30
3.3
0
POINT
8
PERFIL_ELEVACION
10
1409100.17
20
0.0
30
3.36
0
POINT
8
PERFIL_ELEVACION
10
1409100.32
20
0.0
30
3.31
0
POINT
8
PERFIL_ELEVACION
10
1409100.32
20
0.0
30
3.38
0
POINT
8
PERFIL_ELEVACION
10
1409100.48
20
0.0
30
3.36
0
POINT
8
PERFIL_ELEVACION
10
1409100.48
20
0.0
30
3.37
0
POINT
8
PERFIL_ELEVACION
10
1409100.63
20
0.0
30
3.31
0
POINT
8
PERFIL_ELEVACION
10
1409100.63
20
0.0
30
3.38
0
POINT
8
PERFIL_ELEVACION
10
1409100.78
20
0.0
30
3.35
0
POINT
8
PERFIL_ELEVACION
10
1409100.78
20
0.0
30
3.39
0
POINT
8
PERFIL_ELEVACION
10
1409100.93
20
0.0
30
3.36
0
POINT
8
PERFIL_ELEVACION
10
1409101.09
20
0.0
30
3.3
0
POINT
8
PERFIL_ELEVACION
10
1409101.09
20
0.0
30
3.37
0
POINT
8
PERFIL_ELEVACION
10
1409101.24
20
0.0
30
3.31
0
POINT
8
PERFIL_ELEVACION
10
1409101.24
20
0.0
30
3.42
0
POINT
8
PERFIL_ELEVACION
10
1409101.39
20
0.0
30
3.37
0
POINT
8
PERFIL_ELEVACION
10
1409101.55
20
0.0
30
3.3
0
POINT
8
PERFIL_ELEVACION
10
1409101.55
20
0.0
30
3.46
0
POINT
8
PERFIL_ELEVACION
10
1409101.7
20
0.0
30
3.35
0
POINT
8
PERFIL_ELEVACION
10
1409101.7
20
0.0
30
3.38
0
POINT
8
PERFIL_ELEVACION
10
1409101.85
20
0.0
30
3.45
0
POINT
8
PERFIL_ELEVACION
10
1409101.85
20
0.0
30
3.45
0
POINT
8
PERFIL_ELEVACION
10
1409102.01
20
0.0
30
3.38
0
POINT
8
PERFIL_ELEVACION
10
1409102.01
20
0.0
30
3.47
0
POINT
8
PERFIL_ELEVACION
10
1409102.16
20
0.0
30
3.32
0
POINT
8
PERFIL_ELEVACION
10
1409102.16
20
0.0
30
3.43
0
POINT
8
PERFIL_ELEVACION
10
1409102.31
20
0.0
30
3.31
0
POINT
8
PERFIL_ELEVACION
10
1409102.31
20
0.0
30
3.47
0
POINT
8
PERFIL_ELEVACION
10
1409102.47
20
0.0
30
3.4
0
POINT
8
PERFIL_ELEVACION
10
1409102.47
20
0.0
30
3.48
0
POINT
8
PERFIL_ELEVACION
10
1409102.62
20
0.0
30
3.39
0
POINT
8
PERFIL_ELEVACION
10
1409102.62
20
0.0
30
3.42
0
POINT
8
PERFIL_ELEVACION
10
1409102.77
20
0.0
30
3.42
0
POINT
8
PERFIL_ELEVACION
10
1409102.77
20
0.0
30
3.61
0
POINT
8
PERFIL_ELEVACION
10
1409102.93
20
0.0
30
3.34
0
POINT
8
PERFIL_ELEVACION
10
1409102.93
20
0.0
30
3.41
0
POINT
8
PERFIL_ELEVACION
10
1409103.08
20
0.0
30
4.87
0
POINT
8
PERFIL_ELEVACION
10
1409103.23
20
0.0
30
3.27
0
POINT
8
PERFIL_ELEVACION
10
1409103.23
20
0.0
30
6.58
0
POINT
8
PERFIL_ELEVACION
10
1409103.39
20
0.0
30
3.31
0
POINT
8
PERFIL_ELEVACION
10
1409103.39
20
0.0
30
6.5
0
POINT
8
PERFIL_ELEVACION
10
1409103.54
20
0.0
30
3.34
0
POINT
8
PERFIL_ELEVACION
10
1409103.54
20
0.0
30
5.86
0
POINT
8
PERFIL_ELEVACION
10
1409103.69
20
0.0
30
3.5
0
POINT
8
PERFIL_ELEVACION
10
1409103.85
20
0.0
30
3.4
0
POINT
8
PERFIL_ELEVACION
10
1409103.85
20
0.0
30
3.66
0
POINT
8
PERFIL_ELEVACION
10
1409104
20
0.0
30
3.44
0
POINT
8
PERFIL_ELEVACION
10
1409104
20
0.0
30
7.06
0
POINT
8
PERFIL_ELEVACION
10
1409104.15
20
0.0
30
3.43
0
POINT
8
PERFIL_ELEVACION
10
1409104.15
20
0.0
30
6.11
0
POINT
8
PERFIL_ELEVACION
10
1409104.31
20
0.0
30
3.4
0
POINT
8
PERFIL_ELEVACION
10
1409104.31
20
0.0
30
6.93
0
POINT
8
PERFIL_ELEVACION
10
1409104.46
20
0.0
30
3.44
0
POINT
8
PERFIL_ELEVACION
10
1409104.46
20
0.0
30
6.36
0
POINT
8
PERFIL_ELEVACION
10
1409104.61
20
0.0
30
3.48
0
POINT
8
PERFIL_ELEVACION
10
1409104.61
20
0.0
30
7.34
0
POINT
8
PERFIL_ELEVACION
10
1409104.77
20
0.0
30
3.44
0
POINT
8
PERFIL_ELEVACION
10
1409104.77
20
0.0
30
7.58
0
POINT
8
PERFIL_ELEVACION
10
1409104.92
20
0.0
30
3.42
0
POINT
8
PERFIL_ELEVACION
10
1409104.92
20
0.0
30
7.31
0
POINT
8
PERFIL_ELEVACION
10
1409105.07
20
0.0
30
3.6
0
POINT
8
PERFIL_ELEVACION
10
1409105.07
20
0.0
30
6.75
0
POINT
8
PERFIL_ELEVACION
10
1409105.23
20
0.0
30
3.46
0
POINT
8
PERFIL_ELEVACION
10
1409105.23
20
0.0
30
6.74
0
POINT
8
PERFIL_ELEVACION
10
1409105.38
20
0.0
30
3.5
0
POINT
8
PERFIL_ELEVACION
10
1409105.38
20
0.0
30
3.6
0
POINT
8
PERFIL_ELEVACION
10
1409105.53
20
0.0
30
3.58
0
POINT
8
PERFIL_ELEVACION
10
1409105.53
20
0.0
30
6.4
0
POINT
8
PERFIL_ELEVACION
10
1409105.69
20
0.0
30
3.42
0
POINT
8
PERFIL_ELEVACION
10
1409105.69
20
0.0
30
3.43
0
POINT
8
PERFIL_ELEVACION
10
1409105.84
20
0.0
30
3.54
0
POINT
8
PERFIL_ELEVACION
10
1409105.84
20
0.0
30
3.55
0
POINT
8
PERFIL_ELEVACION
10
1409105.99
20
0.0
30
3.5
0
POINT
8
PERFIL_ELEVACION
10
1409105.99
20
0.0
30
3.56
0
POINT
8
PERFIL_ELEVACION
10
1409106.14
20
0.0
30
3.44
0
POINT
8
PERFIL_ELEVACION
10
1409106.14
20
0.0
30
3.58
0
POINT
8
PERFIL_ELEVACION
10
1409106.3
20
0.0
30
3.47
0
POINT
8
PERFIL_ELEVACION
10
1409106.3
20
0.0
30
3.53
0
POINT
8
PERFIL_ELEVACION
10
1409106.45
20
0.0
30
3.48
0
POINT
8
PERFIL_ELEVACION
10
1409106.45
20
0.0
30
3.55
0
POINT
8
PERFIL_ELEVACION
10
1409106.6
20
0.0
30
3.43
0
POINT
8
PERFIL_ELEVACION
10
1409106.6
20
0.0
30
3.51
0
POINT
8
PERFIL_ELEVACION
10
1409106.76
20
0.0
30
3.42
0
POINT
8
PERFIL_ELEVACION
10
1409106.91
20
0.0
30
3.48
0
POINT
8
PERFIL_ELEVACION
10
1409106.91
20
0.0
30
3.54
0
POINT
8
PERFIL_ELEVACION
10
1409107.06
20
0.0
30
3.44
0
POINT
8
PERFIL_ELEVACION
10
1409107.06
20
0.0
30
3.55
0
POINT
8
PERFIL_ELEVACION
10
1409107.22
20
0.0
30
3.51
0
POINT
8
PERFIL_ELEVACION
10
1409107.22
20
0.0
30
3.53
0
POINT
8
PERFIL_ELEVACION
10
1409107.37
20
0.0
30
3.5
0
POINT
8
PERFIL_ELEVACION
10
1409107.37
20
0.0
30
3.53
0
POINT
8
PERFIL_ELEVACION
10
1409107.52
20
0.0
30
3.43
0
POINT
8
PERFIL_ELEVACION
10
1409107.52
20
0.0
30
3.53
0
POINT
8
PERFIL_ELEVACION
10
1409107.68
20
0.0
30
3.41
0
POINT
8
PERFIL_ELEVACION
10
1409107.83
20
0.0
30
3.45
0
POINT
8
PERFIL_ELEVACION
10
1409107.83
20
0.0
30
3.5
0
POINT
8
PERFIL_ELEVACION
10
1409107.98
20
0.0
30
3.46
0
POINT
8
PERFIL_ELEVACION
10
1409107.98
20
0.0
30
3.55
0
POINT
8
PERFIL_ELEVACION
10
1409108.14
20
0.0
30
3.44
0
POINT
8
PERFIL_ELEVACION
10
1409108.14
20
0.0
30
3.51
0
POINT
8
PERFIL_ELEVACION
10
1409108.29
20
0.0
30
3.53
0
POINT
8
PERFIL_ELEVACION
10
1409108.44
20
0.0
30
3.47
0
POINT
8
PERFIL_ELEVACION
10
1409108.6
20
0.0
30
3.47
0
POINT
8
PERFIL_ELEVACION
10
1409108.6
20
0.0
30
3.49
0
POINT
8
PERFIL_ELEVACION
10
1409108.75
20
0.0
30
3.44
0
POINT
8
PERFIL_ELEVACION
10
1409108.75
20
0.0
30
3.51
0
POINT
8
PERFIL_ELEVACION
10
1409108.9
20
0.0
30
3.44
0
POINT
8
PERFIL_ELEVACION
10
1409108.9
20
0.0
30
6.15
0
POINT
8
PERFIL_ELEVACION
10
1409109.06
20
0.0
30
3.45
0
POINT
8
PERFIL_ELEVACION
10
1409109.06
20
0.0
30
3.47
0
POINT
8
PERFIL_ELEVACION
10
1409109.21
20
0.0
30
3.46
0
POINT
8
PERFIL_ELEVACION
10
1409109.21
20
0.0
30
8.44
0
POINT
8
PERFIL_ELEVACION
10
1409109.36
20
0.0
30
3.47
0
POINT
8
PERFIL_ELEVACION
10
1409109.36
20
0.0
30
7.86
0
POINT
8
PERFIL_ELEVACION
10
1409109.52
20
0.0
30
3.47
0
POINT
8
PERFIL_ELEVACION
10
1409109.52
20
0.0
30
3.49
0
POINT
8
PERFIL_ELEVACION
10
1409109.67
20
0.0
30
3.46
0
POINT
8
PERFIL_ELEVACION
10
1409109.67
20
0.0
30
3.63
0
POINT
8
PERFIL_ELEVACION
10
1409109.82
20
0.0
30
3.48
0
POINT
8
PERFIL_ELEVACION
10
1409109.82
20
0.0
30
7.56
0
POINT
8
PERFIL_ELEVACION
10
1409109.98
20
0.0
30
3.46
0
POINT
8
PERFIL_ELEVACION
10
1409109.98
20
0.0
30
3.51
0
POINT
8
PERFIL_ELEVACION
10
1409110.13
20
0.0
30
3.48
0
POINT
8
PERFIL_ELEVACION
10
1409110.13
20
0.0
30
7.18
0
POINT
8
PERFIL_ELEVACION
10
1409110.28
20
0.0
30
3.46
0
POINT
8
PERFIL_ELEVACION
10
1409110.44
20
0.0
30
3.5
0
POINT
8
PERFIL_ELEVACION
10
1409110.59
20
0.0
30
3.47
0
POINT
8
PERFIL_ELEVACION
10
1409110.59
20
0.0
30
7.42
0
POINT
8
PERFIL_ELEVACION
10
1409110.74
20
0.0
30
3.47
0
POINT
8
PERFIL_ELEVACION
10
1409110.74
20
0.0
30
3.51
0
POINT
8
PERFIL_ELEVACION
10
1409110.9
20
0.0
30
3.48
0
POINT
8
PERFIL_ELEVACION
10
1409110.9
20
0.0
30
3.51
0
POINT
8
PERFIL_ELEVACION
10
1409111.05
20
0.0
30
3.48
0
POINT
8
PERFIL_ELEVACION
10
1409111.05
20
0.0
30
3.48
0
POINT
8
PERFIL_ELEVACION
10
1409111.2
20
0.0
30
3.46
0
POINT
8
PERFIL_ELEVACION
10
1409111.2
20
0.0
30
3.48
0
POINT
8
PERFIL_ELEVACION
10
1409111.35
20
0.0
30
3.47
0
POINT
8
PERFIL_ELEVACION
10
1409111.35
20
0.0
30
3.51
0
POINT
8
PERFIL_ELEVACION
10
1409111.51
20
0.0
30
3.44
0
POINT
8
PERFIL_ELEVACION
10
1409111.51
20
0.0
30
3.51
0
POINT
8
PERFIL_ELEVACION
10
1409111.66
20
0.0
30
3.43
0
POINT
8
PERFIL_ELEVACION
10
1409111.66
20
0.0
30
3.48
0
POINT
8
PERFIL_ELEVACION
10
1409111.81
20
0.0
30
3.43
0
POINT
8
PERFIL_ELEVACION
10
1409111.81
20
0.0
30
3.49
0
POINT
8
PERFIL_ELEVACION
10
1409111.97
20
0.0
30
3.45
0
POINT
8
PERFIL_ELEVACION
10
1409111.97
20
0.0
30
3.47
0
POINT
8
PERFIL_ELEVACION
10
1409112.12
20
0.0
30
3.41
0
POINT
8
PERFIL_ELEVACION
10
1409112.12
20
0.0
30
3.47
0
POINT
8
PERFIL_ELEVACION
10
1409112.27
20
0.0
30
3.39
0
POINT
8
PERFIL_ELEVACION
10
1409112.27
20
0.0
30
3.46
0
POINT
8
PERFIL_ELEVACION
10
1409112.43
20
0.0
30
3.37
0
POINT
8
PERFIL_ELEVACION
10
1409112.43
20
0.0
30
3.47
0
POINT
8
PERFIL_ELEVACION
10
1409112.58
20
0.0
30
3.39
0
POINT
8
PERFIL_ELEVACION
10
1409112.73
20
0.0
30
3.44
0
POINT
8
PERFIL_ELEVACION
10
1409112.73
20
0.0
30
3.47
0
POINT
8
PERFIL_ELEVACION
10
1409112.89
20
0.0
30
3.41
0
POINT
8
PERFIL_ELEVACION
10
1409113.04
20
0.0
30
3.41
0
POINT
8
PERFIL_ELEVACION
10
1409113.04
20
0.0
30
3.43
0
POINT
8
PERFIL_ELEVACION
10
1409113.19
20
0.0
30
3.34
0
POINT
8
PERFIL_ELEVACION
10
1409113.19
20
0.0
30
3.42
0
POINT
8
PERFIL_ELEVACION
10
1409113.35
20
0.0
30
3.34
0
POINT
8
PERFIL_ELEVACION
10
1409113.35
20
0.0
30
3.36
0
POINT
8
PERFIL_ELEVACION
10
1409113.5
20
0.0
30
3.34
0
POINT
8
PERFIL_ELEVACION
10
1409113.5
20
0.0
30
3.39
0
POINT
8
PERFIL_ELEVACION
10
1409113.65
20
0.0
30
3.32
0
POINT
8
PERFIL_ELEVACION
10
1409113.65
20
0.0
30
3.37
0
POINT
8
PERFIL_ELEVACION
10
1409113.81
20
0.0
30
3.33
0
POINT
8
PERFIL_ELEVACION
10
1409113.81
20
0.0
30
3.39
0
POINT
8
PERFIL_ELEVACION
10
1409113.96
20
0.0
30
3.32
0
POINT
8
PERFIL_ELEVACION
10
1409113.96
20
0.0
30
3.37
0
POINT
8
PERFIL_ELEVACION
10
1409114.11
20
0.0
30
3.35
0
POINT
8
PERFIL_ELEVACION
10
1409114.11
20
0.0
30
3.38
0
POINT
8
PERFIL_ELEVACION
10
1409114.27
20
0.0
30
3.33
0
POINT
8
PERFIL_ELEVACION
10
1409114.27
20
0.0
30
3.38
0
POINT
8
PERFIL_ELEVACION
10
1409114.42
20
0.0
30
3.33
0
POINT
8
PERFIL_ELEVACION
10
1409114.57
20
0.0
30
3.31
0
POINT
8
PERFIL_ELEVACION
10
1409114.57
20
0.0
30
3.38
0
POINT
8
PERFIL_ELEVACION
10
1409114.73
20
0.0
30
3.35
0
POINT
8
PERFIL_ELEVACION
10
1409114.73
20
0.0
30
3.36
0
POINT
8
PERFIL_ELEVACION
10
1409114.88
20
0.0
30
3.34
0
POINT
8
PERFIL_ELEVACION
10
1409114.88
20
0.0
30
3.39
0
POINT
8
PERFIL_ELEVACION
10
1409115.03
20
0.0
30
3.32
0
POINT
8
PERFIL_ELEVACION
10
1409115.03
20
0.0
30
3.38
0
POINT
8
PERFIL_ELEVACION
10
1409115.19
20
0.0
30
3.31
0
POINT
8
PERFIL_ELEVACION
10
1409115.19
20
0.0
30
3.33
0
POINT
8
PERFIL_ELEVACION
10
1409115.34
20
0.0
30
3.34
0
POINT
8
PERFIL_ELEVACION
10
1409115.34
20
0.0
30
3.35
0
POINT
8
PERFIL_ELEVACION
10
1409115.49
20
0.0
30
3.33
0
POINT
8
PERFIL_ELEVACION
10
1409115.49
20
0.0
30
3.36
0
POINT
8
PERFIL_ELEVACION
10
1409115.65
20
0.0
30
3.35
0
POINT
8
PERFIL_ELEVACION
10
1409115.65
20
0.0
30
3.38
0
POINT
8
PERFIL_ELEVACION
10
1409115.8
20
0.0
30
3.33
0
POINT
8
PERFIL_ELEVACION
10
1409115.8
20
0.0
30
3.35
0
POINT
8
PERFIL_ELEVACION
10
1409115.95
20
0.0
30
3.36
0
POINT
8
PERFIL_ELEVACION
10
1409116.1
20
0.0
30
3.33
0
POINT
8
PERFIL_ELEVACION
10
1409116.1
20
0.0
30
3.61
0
POINT
8
PERFIL_ELEVACION
10
1409116.26
20
0.0
30
3.33
0
POINT
8
PERFIL_ELEVACION
10
1409116.26
20
0.0
30
3.37
0
POINT
8
PERFIL_ELEVACION
10
1409116.41
20
0.0
30
3.35
0
POINT
8
PERFIL_ELEVACION
10
1409116.41
20
0.0
30
3.37
0
POINT
8
PERFIL_ELEVACION
10
1409116.56
20
0.0
30
3.28
0
POINT
8
PERFIL_ELEVACION
10
1409116.56
20
0.0
30
3.38
0
POINT
8
PERFIL_ELEVACION
10
1409116.72
20
0.0
30
3.31
0
POINT
8
PERFIL_ELEVACION
10
1409116.87
20
0.0
30
3.31
0
POINT
8
PERFIL_ELEVACION
10
1409116.87
20
0.0
30
3.37
0
POINT
8
PERFIL_ELEVACION
10
1409117.02
20
0.0
30
3.3
0
POINT
8
PERFIL_ELEVACION
10
1409117.02
20
0.0
30
3.36
0
POINT
8
PERFIL_ELEVACION
10
1409117.18
20
0.0
30
3.3
0
POINT
8
PERFIL_ELEVACION
10
1409117.18
20
0.0
30
3.35
0
POINT
8
PERFIL_ELEVACION
10
1409117.33
20
0.0
30
3.35
0
POINT
8
PERFIL_ELEVACION
10
1409117.33
20
0.0
30
3.36
0
POINT
8
PERFIL_ELEVACION
10
1409117.48
20
0.0
30
3.28
0
POINT
8
PERFIL_ELEVACION
10
1409117.48
20
0.0
30
3.36
0
POINT
8
PERFIL_ELEVACION
10
1409117.64
20
0.0
30
3.29
0
POINT
8
PERFIL_ELEVACION
10
1409117.64
20
0.0
30
3.57
0
POINT
8
PERFIL_ELEVACION
10
1409117.79
20
0.0
30
3.35
0
POINT
8
PERFIL_ELEVACION
10
1409117.79
20
0.0
30
3.37
0
POINT
8
PERFIL_ELEVACION
10
1409117.94
20
0.0
30
3.28
0
POINT
8
PERFIL_ELEVACION
10
1409117.94
20
0.0
30
3.35
0
POINT
8
PERFIL_ELEVACION
10
1409118.1
20
0.0
30
3.3
0
POINT
8
PERFIL_ELEVACION
10
1409118.1
20
0.0
30
3.38
0
POINT
8
PERFIL_ELEVACION
10
1409118.25
20
0.0
30
3.26
0
POINT
8
PERFIL_ELEVACION
10
1409118.25
20
0.0
30
3.42
0
POINT
8
PERFIL_ELEVACION
10
1409118.4
20
0.0
30
3.26
0
POINT
8
PERFIL_ELEVACION
10
1409118.4
20
0.0
30
3.41
0
POINT
8
PERFIL_ELEVACION
10
1409118.56
20
0.0
30
3.29
0
POINT
8
PERFIL_ELEVACION
10
1409118.56
20
0.0
30
3.4
0
POINT
8
PERFIL_ELEVACION
10
1409118.71
20
0.0
30
3.28
0
POINT
8
PERFIL_ELEVACION
10
1409118.71
20
0.0
30
3.34
0
POINT
8
PERFIL_ELEVACION
10
1409118.86
20
0.0
30
3.31
0
POINT
8
PERFIL_ELEVACION
10
1409118.86
20
0.0
30
3.37
0
POINT
8
PERFIL_ELEVACION
10
1409119.02
20
0.0
30
3.31
0
POINT
8
PERFIL_ELEVACION
10
1409119.02
20
0.0
30
3.33
0
POINT
8
PERFIL_ELEVACION
10
1409119.17
20
0.0
30
3.27
0
POINT
8
PERFIL_ELEVACION
10
1409119.17
20
0.0
30
3.4
0
POINT
8
PERFIL_ELEVACION
10
1409119.32
20
0.0
30
3.3
0
POINT
8
PERFIL_ELEVACION
10
1409119.32
20
0.0
30
3.36
0
POINT
8
PERFIL_ELEVACION
10
1409119.48
20
0.0
30
3.28
0
POINT
8
PERFIL_ELEVACION
10
1409119.48
20
0.0
30
3.39
0
POINT
8
PERFIL_ELEVACION
10
1409119.63
20
0.0
30
3.29
0
POINT
8
PERFIL_ELEVACION
10
1409119.63
20
0.0
30
7.72
0
POINT
8
PERFIL_ELEVACION
10
1409119.78
20
0.0
30
3.32
0
POINT
8
PERFIL_ELEVACION
10
1409119.78
20
0.0
30
7.81
0
POINT
8
PERFIL_ELEVACION
10
1409119.94
20
0.0
30
3.29
0
POINT
8
PERFIL_ELEVACION
10
1409119.94
20
0.0
30
6.74
0
POINT
8
PERFIL_ELEVACION
10
1409120.09
20
0.0
30
3.34
0
POINT
8
PERFIL_ELEVACION
10
1409120.09
20
0.0
30
6.82
0
POINT
8
PERFIL_ELEVACION
10
1409120.24
20
0.0
30
3.3
0
POINT
8
PERFIL_ELEVACION
10
1409120.24
20
0.0
30
6.88
0
POINT
8
PERFIL_ELEVACION
10
1409120.4
20
0.0
30
3.34
0
POINT
8
PERFIL_ELEVACION
10
1409120.4
20
0.0
30
7.17
0
POINT
8
PERFIL_ELEVACION
10
1409120.55
20
0.0
30
3.33
0
POINT
8
PERFIL_ELEVACION
10
1409120.55
20
0.0
30
7.99
0
POINT
8
PERFIL_ELEVACION
10
1409120.7
20
0.0
30
3.32
0
POINT
8
PERFIL_ELEVACION
10
1409120.7
20
0.0
30
8.48
0
POINT
8
PERFIL_ELEVACION
10
1409120.86
20
0.0
30
3.37
0
POINT
8
PERFIL_ELEVACION
10
1409120.86
20
0.0
30
8.38
0
POINT
8
PERFIL_ELEVACION
10
1409121.01
20
0.0
30
3.34
0
POINT
8
PERFIL_ELEVACION
10
1409121.01
20
0.0
30
9.78
0
POINT
8
PERFIL_ELEVACION
10
1409121.16
20
0.0
30
3.32
0
POINT
8
PERFIL_ELEVACION
10
1409121.16
20
0.0
30
9.03
0
POINT
8
PERFIL_ELEVACION
10
1409121.31
20
0.0
30
3.32
0
POINT
8
PERFIL_ELEVACION
10
1409121.31
20
0.0
30
9.05
0
POINT
8
PERFIL_ELEVACION
10
1409121.47
20
0.0
30
3.37
0
POINT
8
PERFIL_ELEVACION
10
1409121.47
20
0.0
30
8.6
0
POINT
8
PERFIL_ELEVACION
10
1409121.62
20
0.0
30
3.36
0
POINT
8
PERFIL_ELEVACION
10
1409121.62
20
0.0
30
9.71
0
POINT
8
PERFIL_ELEVACION
10
1409121.77
20
0.0
30
3.33
0
POINT
8
PERFIL_ELEVACION
10
1409121.77
20
0.0
30
8.9
0
POINT
8
PERFIL_ELEVACION
10
1409121.93
20
0.0
30
3.31
0
POINT
8
PERFIL_ELEVACION
10
1409121.93
20
0.0
30
8.63
0
POINT
8
PERFIL_ELEVACION
10
1409122.08
20
0.0
30
3.36
0
POINT
8
PERFIL_ELEVACION
10
1409122.08
20
0.0
30
7.99
0
POINT
8
PERFIL_ELEVACION
10
1409122.23
20
0.0
30
3.46
0
POINT
8
PERFIL_ELEVACION
10
1409122.23
20
0.0
30
8.33
0
POINT
8
PERFIL_ELEVACION
10
1409122.39
20
0.0
30
3.35
0
POINT
8
PERFIL_ELEVACION
10
1409122.39
20
0.0
30
8.6
0
POINT
8
PERFIL_ELEVACION
10
1409122.54
20
0.0
30
3.34
0
POINT
8
PERFIL_ELEVACION
10
1409122.54
20
0.0
30
9.26
0
POINT
8
PERFIL_ELEVACION
10
1409122.69
20
0.0
30
3.37
0
POINT
8
PERFIL_ELEVACION
10
1409122.69
20
0.0
30
5.55
0
POINT
8
PERFIL_ELEVACION
10
1409122.85
20
0.0
30
3.36
0
POINT
8
PERFIL_ELEVACION
10
1409122.85
20
0.0
30
8.73
0
POINT
8
PERFIL_ELEVACION
10
1409123
20
0.0
30
3.34
0
POINT
8
PERFIL_ELEVACION
10
1409123
20
0.0
30
7.23
0
POINT
8
PERFIL_ELEVACION
10
1409123.15
20
0.0
30
3.36
0
POINT
8
PERFIL_ELEVACION
10
1409123.15
20
0.0
30
3.45
0
POINT
8
PERFIL_ELEVACION
10
1409123.31
20
0.0
30
3.39
0
POINT
8
PERFIL_ELEVACION
10
1409123.31
20
0.0
30
6.49
0
POINT
8
PERFIL_ELEVACION
10
1409123.46
20
0.0
30
3.37
0
POINT
8
PERFIL_ELEVACION
10
1409123.46
20
0.0
30
3.45
0
POINT
8
PERFIL_ELEVACION
10
1409123.61
20
0.0
30
3.37
0
POINT
8
PERFIL_ELEVACION
10
1409123.61
20
0.0
30
3.45
0
POINT
8
PERFIL_ELEVACION
10
1409123.77
20
0.0
30
3.37
0
POINT
8
PERFIL_ELEVACION
10
1409123.77
20
0.0
30
3.46
0
POINT
8
PERFIL_ELEVACION
10
1409123.92
20
0.0
30
3.39
0
POINT
8
PERFIL_ELEVACION
10
1409123.92
20
0.0
30
3.44
0
POINT
8
PERFIL_ELEVACION
10
1409124.07
20
0.0
30
3.36
0
POINT
8
PERFIL_ELEVACION
10
1409124.07
20
0.0
30
5.26
0
POINT
8
PERFIL_ELEVACION
10
1409124.23
20
0.0
30
3.38
0
POINT
8
PERFIL_ELEVACION
10
1409124.23
20
0.0
30
5.34
0
POINT
8
PERFIL_ELEVACION
10
1409124.38
20
0.0
30
3.39
0
POINT
8
PERFIL_ELEVACION
10
1409124.38
20
0.0
30
3.44
0
POINT
8
PERFIL_ELEVACION
10
1409124.53
20
0.0
30
3.4
0
POINT
8
PERFIL_ELEVACION
10
1409124.53
20
0.0
30
5.46
0
POINT
8
PERFIL_ELEVACION
10
1409124.69
20
0.0
30
3.2
0
POINT
8
PERFIL_ELEVACION
10
1409124.69
20
0.0
30
3.42
0
POINT
8
PERFIL_ELEVACION
10
1409124.84
20
0.0
30
3.39
0
POINT
8
PERFIL_ELEVACION
10
1409124.84
20
0.0
30
3.42
0
POINT
8
PERFIL_ELEVACION
10
1409124.99
20
0.0
30
3.39
0
POINT
8
PERFIL_ELEVACION
10
1409124.99
20
0.0
30
5.36
0
POINT
8
PERFIL_ELEVACION
10
1409125.15
20
0.0
30
3.38
0
POINT
8
PERFIL_ELEVACION
10
1409125.15
20
0.0
30
4.22
0
POINT
8
PERFIL_ELEVACION
10
1409125.3
20
0.0
30
3.15
0
POINT
8
PERFIL_ELEVACION
10
1409125.3
20
0.0
30
5.41
0
POINT
8
PERFIL_ELEVACION
10
1409125.45
20
0.0
30
3.38
0
POINT
8
PERFIL_ELEVACION
10
1409125.45
20
0.0
30
5.45
0
POINT
8
PERFIL_ELEVACION
10
1409125.61
20
0.0
30
3.42
0
POINT
8
PERFIL_ELEVACION
10
1409125.76
20
0.0
30
3.14
0
POINT
8
PERFIL_ELEVACION
10
1409125.76
20
0.0
30
4.77
0
POINT
8
PERFIL_ELEVACION
10
1409125.91
20
0.0
30
3.13
0
POINT
8
PERFIL_ELEVACION
10
1409125.91
20
0.0
30
3.36
0
POINT
8
PERFIL_ELEVACION
10
1409126.07
20
0.0
30
3.11
0
POINT
8
PERFIL_ELEVACION
10
1409126.07
20
0.0
30
3.15
0
POINT
8
PERFIL_ELEVACION
10
1409126.22
20
0.0
30
3.1
0
POINT
8
PERFIL_ELEVACION
10
1409126.22
20
0.0
30
3.13
0
POINT
8
PERFIL_ELEVACION
10
1409126.37
20
0.0
30
3.09
0
POINT
8
PERFIL_ELEVACION
10
1409126.37
20
0.0
30
3.14
0
POINT
8
PERFIL_ELEVACION
10
1409126.52
20
0.0
30
3.09
0
POINT
8
PERFIL_ELEVACION
10
1409126.52
20
0.0
30
5.11
0
POINT
8
PERFIL_ELEVACION
10
1409126.68
20
0.0
30
3.1
0
POINT
8
PERFIL_ELEVACION
10
1409126.68
20
0.0
30
3.14
0
POINT
8
PERFIL_ELEVACION
10
1409126.83
20
0.0
30
3.11
0
POINT
8
PERFIL_ELEVACION
10
1409126.98
20
0.0
30
3.09
0
POINT
8
PERFIL_ELEVACION
10
1409126.98
20
0.0
30
4.92
0
POINT
8
PERFIL_ELEVACION
10
1409127.14
20
0.0
30
3.09
0
POINT
8
PERFIL_ELEVACION
10
1409127.14
20
0.0
30
3.11
0
POINT
8
PERFIL_ELEVACION
10
1409127.29
20
0.0
30
3.1
0
POINT
8
PERFIL_ELEVACION
10
1409127.29
20
0.0
30
3.13
0
POINT
8
PERFIL_ELEVACION
10
1409127.44
20
0.0
30
3.1
0
POINT
8
PERFIL_ELEVACION
10
1409127.44
20
0.0
30
4.04
0
POINT
8
PERFIL_ELEVACION
10
1409127.6
20
0.0
30
3.13
0
POINT
8
PERFIL_ELEVACION
10
1409127.6
20
0.0
30
4.91
0
POINT
8
PERFIL_ELEVACION
10
1409127.75
20
0.0
30
3.1
0
POINT
8
PERFIL_ELEVACION
10
1409127.75
20
0.0
30
3.11
0
POINT
8
PERFIL_ELEVACION
10
1409127.9
20
0.0
30
3.12
0
POINT
8
PERFIL_ELEVACION
10
1409127.9
20
0.0
30
3.13
0
POINT
8
PERFIL_ELEVACION
10
1409128.06
20
0.0
30
3.1
0
POINT
8
PERFIL_ELEVACION
10
1409128.06
20
0.0
30
3.12
0
POINT
8
PERFIL_ELEVACION
10
1409128.21
20
0.0
30
3.1
0
POINT
8
PERFIL_ELEVACION
10
1409128.21
20
0.0
30
4.56
0
POINT
8
PERFIL_ELEVACION
10
1409128.36
20
0.0
30
3.1
0
POINT
8
PERFIL_ELEVACION
10
1409128.52
20
0.0
30
3.11
0
POINT
8
PERFIL_ELEVACION
10
1409128.52
20
0.0
30
4.85
0
POINT
8
PERFIL_ELEVACION
10
1409128.67
20
0.0
30
3.11
0
POINT
8
PERFIL_ELEVACION
10
1409128.67
20
0.0
30
3.13
0
POINT
8
PERFIL_ELEVACION
10
1409128.82
20
0.0
30
3.11
0
POINT
8
PERFIL_ELEVACION
10
1409128.82
20
0.0
30
3.12
0
POINT
8
PERFIL_ELEVACION
10
1409128.98
20
0.0
30
3.08
0
POINT
8
PERFIL_ELEVACION
10
1409128.98
20
0.0
30
3.11
0
POINT
8
PERFIL_ELEVACION
10
1409129.13
20
0.0
30
3.09
0
POINT
8
PERFIL_ELEVACION
10
1409129.13
20
0.0
30
3.75
0
POINT
8
PERFIL_ELEVACION
10
1409129.28
20
0.0
30
3.1
0
POINT
8
PERFIL_ELEVACION
10
1409129.28
20
0.0
30
4.51
0
POINT
8
PERFIL_ELEVACION
10
1409129.44
20
0.0
30
3.11
0
POINT
8
PERFIL_ELEVACION
10
1409129.44
20
0.0
30
3.11
0
POINT
8
PERFIL_ELEVACION
10
1409129.74
20
0.0
30
3.11
0
POINT
8
PERFIL_ELEVACION
10
1409129.74
20
0.0
30
3.13
0
POINT
8
PERFIL_ELEVACION
10
1409129.9
20
0.0
30
3.09
0
POINT
8
PERFIL_ELEVACION
10
1409129.9
20
0.0
30
3.91
0
POINT
8
PERFIL_ELEVACION
10
1409130.05
20
0.0
30
3.09
0
POINT
8
PERFIL_ELEVACION
10
1409130.05
20
0.0
30
3.14
0
POINT
8
PERFIL_ELEVACION
10
1409130.2
20
0.0
30
3.1
0
POINT
8
PERFIL_ELEVACION
10
1409130.2
20
0.0
30
5.09
0
POINT
8
PERFIL_ELEVACION
10
1409130.36
20
0.0
30
3.09
0
POINT
8
PERFIL_ELEVACION
10
1409130.36
20
0.0
30
3.11
0
POINT
8
PERFIL_ELEVACION
10
1409130.51
20
0.0
30
3.12
0
POINT
8
PERFIL_ELEVACION
10
1409130.66
20
0.0
30
3.1
0
POINT
8
PERFIL_ELEVACION
10
1409130.66
20
0.0
30
4.36
0
POINT
8
PERFIL_ELEVACION
10
1409130.82
20
0.0
30
3.11
0
POINT
8
PERFIL_ELEVACION
10
1409130.82
20
0.0
30
3.13
0
POINT
8
PERFIL_ELEVACION
10
1409130.97
20
0.0
30
3.12
0
POINT
8
PERFIL_ELEVACION
10
1409130.97
20
0.0
30
5
0
POINT
8
PERFIL_ELEVACION
10
1409131.12
20
0.0
30
3.1
0
POINT
8
PERFIL_ELEVACION
10
1409131.28
20
0.0
30
3.11
0
POINT
8
PERFIL_ELEVACION
10
1409131.28
20
0.0
30
4.75
0
POINT
8
PERFIL_ELEVACION
10
1409131.43
20
0.0
30
3.11
0
POINT
8
PERFIL_ELEVACION
10
1409131.43
20
0.0
30
3.97
0
ENDSEC
0
EOF
